<svg width="375" height="170" viewBox="0 0 375 170" fill="none" xmlns="http://www.w3.org/2000/svg">
<path d="M118.25 3.75V72H101.797V3.75H118.25ZM138.781 3.75V16.4531H81.7344V3.75H138.781ZM157.859 33.8438V72H142.062V21.2812H156.828L157.859 33.8438ZM172.859 20.9062L172.578 35.5781C171.953 35.5156 171.109 35.4375 170.047 35.3438C168.984 35.25 168.094 35.2031 167.375 35.2031C165.531 35.2031 163.938 35.4219 162.594 35.8594C161.281 36.2656 160.188 36.8906 159.312 37.7344C158.469 38.5469 157.844 39.5781 157.438 40.8281C157.062 42.0781 156.891 43.5312 156.922 45.1875L154.062 43.3125C154.062 39.9062 154.391 36.8125 155.047 34.0312C155.734 31.2188 156.703 28.7969 157.953 26.7656C159.203 24.7031 160.719 23.125 162.5 22.0312C164.281 20.9062 166.281 20.3438 168.5 20.3438C169.281 20.3438 170.047 20.3906 170.797 20.4844C171.578 20.5781 172.266 20.7188 172.859 20.9062ZM203.234 59.25V38.3438C203.234 36.9062 203.031 35.6719 202.625 34.6406C202.219 33.6094 201.578 32.8125 200.703 32.25C199.828 31.6562 198.656 31.3594 197.188 31.3594C196 31.3594 194.984 31.5625 194.141 31.9688C193.297 32.375 192.656 32.9844 192.219 33.7969C191.781 34.6094 191.562 35.6406 191.562 36.8906H175.766C175.766 34.5469 176.281 32.375 177.312 30.375C178.375 28.3438 179.875 26.5781 181.812 25.0781C183.781 23.5781 186.125 22.4219 188.844 21.6094C191.594 20.7656 194.656 20.3438 198.031 20.3438C202.062 20.3438 205.656 21.0156 208.812 22.3594C212 23.7031 214.516 25.7188 216.359 28.4062C218.203 31.0625 219.125 34.4062 219.125 38.4375V59.2031C219.125 62.5156 219.312 65.0312 219.688 66.75C220.062 68.4375 220.594 69.9219 221.281 71.2031V72H205.438C204.688 70.4375 204.125 68.5312 203.75 66.2812C203.406 64 203.234 61.6562 203.234 59.25ZM205.156 41.0156L205.25 49.4531H198.266C196.797 49.4531 195.547 49.6562 194.516 50.0625C193.516 50.4688 192.703 51.0312 192.078 51.75C191.484 52.4375 191.047 53.2188 190.766 54.0938C190.516 54.9688 190.391 55.8906 190.391 56.8594C190.391 57.7969 190.609 58.6406 191.047 59.3906C191.516 60.1094 192.141 60.6719 192.922 61.0781C193.703 61.4844 194.578 61.6875 195.547 61.6875C197.297 61.6875 198.781 61.3594 200 60.7031C201.25 60.0156 202.203 59.1875 202.859 58.2188C203.516 57.25 203.844 56.3438 203.844 55.5L207.312 61.9688C206.688 63.2188 205.969 64.4844 205.156 65.7656C204.375 67.0469 203.391 68.2344 202.203 69.3281C201.047 70.3906 199.625 71.2656 197.938 71.9531C196.25 72.6094 194.203 72.9375 191.797 72.9375C188.672 72.9375 185.797 72.2969 183.172 71.0156C180.578 69.7344 178.5 67.9531 176.938 65.6719C175.375 63.3594 174.594 60.7031 174.594 57.7031C174.594 55.0781 175.062 52.7344 176 50.6719C176.969 48.6094 178.422 46.8594 180.359 45.4219C182.297 43.9844 184.766 42.8906 187.766 42.1406C190.766 41.3906 194.297 41.0156 198.359 41.0156H205.156ZM254.469 57.75C254.469 56.875 254.172 56.125 253.578 55.5C253.016 54.8438 252.016 54.25 250.578 53.7188C249.141 53.1562 247.125 52.5938 244.531 52.0312C242.062 51.5 239.734 50.7969 237.547 49.9219C235.391 49.0469 233.5 47.9844 231.875 46.7344C230.25 45.4844 228.969 44 228.031 42.2812C227.125 40.5625 226.672 38.5938 226.672 36.375C226.672 34.2188 227.125 32.1875 228.031 30.2812C228.969 28.3438 230.328 26.6406 232.109 25.1719C233.922 23.6719 236.125 22.5 238.719 21.6562C241.312 20.7812 244.266 20.3438 247.578 20.3438C252.141 20.3438 256.078 21.0469 259.391 22.4531C262.703 23.8281 265.25 25.7656 267.031 28.2656C268.844 30.7344 269.75 33.5938 269.75 36.8438H253.953C253.953 35.5625 253.734 34.4688 253.297 33.5625C252.891 32.6562 252.219 31.9688 251.281 31.5C250.344 31 249.094 30.75 247.531 30.75C246.438 30.75 245.438 30.9531 244.531 31.3594C243.656 31.7656 242.953 32.3281 242.422 33.0469C241.891 33.7656 241.625 34.6094 241.625 35.5781C241.625 36.2656 241.781 36.8906 242.094 37.4531C242.438 37.9844 242.953 38.4844 243.641 38.9531C244.328 39.3906 245.203 39.7969 246.266 40.1719C247.328 40.5156 248.609 40.8281 250.109 41.1094C253.516 41.7344 256.703 42.625 259.672 43.7812C262.641 44.9375 265.047 46.5781 266.891 48.7031C268.766 50.8281 269.703 53.6875 269.703 57.2812C269.703 59.5312 269.188 61.6094 268.156 63.5156C267.125 65.3906 265.641 67.0469 263.703 68.4844C261.766 69.8906 259.438 70.9844 256.719 71.7656C254 72.5469 250.938 72.9375 247.531 72.9375C242.688 72.9375 238.594 72.0781 235.25 70.3594C231.906 68.6094 229.375 66.4219 227.656 63.7969C225.969 61.1406 225.125 58.4531 225.125 55.7344H239.844C239.906 57.2969 240.281 58.5781 240.969 59.5781C241.688 60.5781 242.641 61.3125 243.828 61.7812C245.016 62.25 246.391 62.4844 247.953 62.4844C249.391 62.4844 250.578 62.2812 251.516 61.875C252.484 61.4688 253.219 60.9219 253.719 60.2344C254.219 59.5156 254.469 58.6875 254.469 57.75ZM292.578 0V72H276.781V0H292.578ZM290.703 44.9062L287 45C287 41.4375 287.438 38.1562 288.312 35.1562C289.188 32.1562 290.438 29.5469 292.062 27.3281C293.688 25.1094 295.641 23.3906 297.922 22.1719C300.203 20.9531 302.734 20.3438 305.516 20.3438C308.016 20.3438 310.297 20.7031 312.359 21.4219C314.453 22.1406 316.25 23.2969 317.75 24.8906C319.281 26.4844 320.453 28.5625 321.266 31.125C322.109 33.6875 322.531 36.8125 322.531 40.5V72H306.641V40.4062C306.641 38.3438 306.344 36.75 305.75 35.625C305.188 34.4688 304.375 33.6719 303.312 33.2344C302.25 32.7656 300.953 32.5312 299.422 32.5312C297.578 32.5312 296.078 32.8438 294.922 33.4688C293.766 34.0938 292.875 34.9688 292.25 36.0938C291.656 37.1875 291.25 38.4844 291.031 39.9844C290.812 41.4844 290.703 43.125 290.703 44.9062Z" fill="#28A0D4"/>
<path d="M93.3594 80.75H106.766L122 128.234L137.234 80.75H150.641L127.438 149H116.562L93.3594 80.75ZM85.2031 80.75H99.0781L101.656 133.062V149H85.2031V80.75ZM144.922 80.75H158.844V149H142.344V133.062L144.922 80.75ZM166.672 124.156V123.172C166.672 119.453 167.203 116.031 168.266 112.906C169.328 109.75 170.891 107.016 172.953 104.703C175.016 102.391 177.562 100.594 180.594 99.3125C183.625 98 187.125 97.3438 191.094 97.3438C195.094 97.3438 198.609 98 201.641 99.3125C204.703 100.594 207.266 102.391 209.328 104.703C211.391 107.016 212.953 109.75 214.016 112.906C215.078 116.031 215.609 119.453 215.609 123.172V124.156C215.609 127.844 215.078 131.266 214.016 134.422C212.953 137.547 211.391 140.281 209.328 142.625C207.266 144.938 204.719 146.734 201.688 148.016C198.656 149.297 195.156 149.938 191.188 149.938C187.219 149.938 183.703 149.297 180.641 148.016C177.578 146.734 175.016 144.938 172.953 142.625C170.891 140.281 169.328 137.547 168.266 134.422C167.203 131.266 166.672 127.844 166.672 124.156ZM182.469 123.172V124.156C182.469 126.062 182.609 127.844 182.891 129.5C183.172 131.156 183.641 132.609 184.297 133.859C184.953 135.078 185.844 136.031 186.969 136.719C188.094 137.406 189.5 137.75 191.188 137.75C192.844 137.75 194.219 137.406 195.312 136.719C196.438 136.031 197.328 135.078 197.984 133.859C198.641 132.609 199.109 131.156 199.391 129.5C199.672 127.844 199.812 126.062 199.812 124.156V123.172C199.812 121.328 199.672 119.594 199.391 117.969C199.109 116.312 198.641 114.859 197.984 113.609C197.328 112.328 196.438 111.328 195.312 110.609C194.188 109.891 192.781 109.531 191.094 109.531C189.438 109.531 188.047 109.891 186.922 110.609C185.828 111.328 184.953 112.328 184.297 113.609C183.641 114.859 183.172 116.312 182.891 117.969C182.609 119.594 182.469 121.328 182.469 123.172ZM238.156 109.109V149H222.359V98.2812H237.172L238.156 109.109ZM236.281 121.906L232.578 122C232.578 118.125 233.047 114.672 233.984 111.641C234.922 108.578 236.25 105.984 237.969 103.859C239.688 101.734 241.734 100.125 244.109 99.0312C246.516 97.9062 249.188 97.3438 252.125 97.3438C254.469 97.3438 256.609 97.6875 258.547 98.375C260.516 99.0625 262.203 100.172 263.609 101.703C265.047 103.234 266.141 105.266 266.891 107.797C267.672 110.297 268.062 113.391 268.062 117.078V149H252.172V117.031C252.172 115 251.891 113.453 251.328 112.391C250.766 111.297 249.953 110.547 248.891 110.141C247.828 109.734 246.531 109.531 245 109.531C243.375 109.531 242 109.844 240.875 110.469C239.75 111.094 238.844 111.969 238.156 113.094C237.5 114.188 237.016 115.484 236.703 116.984C236.422 118.484 236.281 120.125 236.281 121.906ZM301.391 149.938C297.266 149.938 293.578 149.297 290.328 148.016C287.078 146.703 284.328 144.906 282.078 142.625C279.859 140.344 278.156 137.719 276.969 134.75C275.812 131.781 275.234 128.641 275.234 125.328V123.547C275.234 119.828 275.75 116.391 276.781 113.234C277.812 110.047 279.344 107.266 281.375 104.891C283.406 102.516 285.953 100.672 289.016 99.3594C292.078 98.0156 295.641 97.3438 299.703 97.3438C303.297 97.3438 306.516 97.9219 309.359 99.0781C312.203 100.234 314.609 101.891 316.578 104.047C318.578 106.203 320.094 108.812 321.125 111.875C322.188 114.938 322.719 118.375 322.719 122.188V128.609H281.281V118.719H307.297V117.5C307.328 115.812 307.031 114.375 306.406 113.188C305.812 112 304.938 111.094 303.781 110.469C302.625 109.844 301.219 109.531 299.562 109.531C297.844 109.531 296.422 109.906 295.297 110.656C294.203 111.406 293.344 112.438 292.719 113.75C292.125 115.031 291.703 116.516 291.453 118.203C291.203 119.891 291.078 121.672 291.078 123.547V125.328C291.078 127.203 291.328 128.906 291.828 130.438C292.359 131.969 293.109 133.281 294.078 134.375C295.078 135.438 296.266 136.266 297.641 136.859C299.047 137.453 300.641 137.75 302.422 137.75C304.578 137.75 306.703 137.344 308.797 136.531C310.891 135.719 312.688 134.375 314.188 132.5L321.359 141.031C320.328 142.5 318.859 143.922 316.953 145.297C315.078 146.672 312.828 147.797 310.203 148.672C307.578 149.516 304.641 149.938 301.391 149.938ZM344.047 143.047L357.172 98.2812H374.141L353.75 156.547C353.312 157.828 352.734 159.203 352.016 160.672C351.297 162.172 350.312 163.594 349.062 164.938C347.812 166.281 346.203 167.375 344.234 168.219C342.297 169.062 339.891 169.484 337.016 169.484C335.484 169.484 334.359 169.406 333.641 169.25C332.953 169.125 331.891 168.891 330.453 168.547V157.25C330.859 157.25 331.203 157.25 331.484 157.25C331.797 157.25 332.141 157.25 332.516 157.25C334.203 157.25 335.547 157.078 336.547 156.734C337.578 156.391 338.359 155.891 338.891 155.234C339.453 154.578 339.891 153.781 340.203 152.844L344.047 143.047ZM340.719 98.2812L350.703 133.766L352.438 150.5H341.844L323.797 98.2812H340.719Z" fill="#52DE3B"/>
<path d="M6.87432 27.7335L14.391 24.445C27.9634 27.4724 42.0366 27.4724 55.609 24.445L63.1257 27.7336C63.8654 28.0572 64.4898 28.597 64.9169 29.2821L65.1537 29.662C65.6242 30.4168 65.8297 31.3068 65.7378 32.1914L65.032 38.985L63.803 46.8708C63.5504 48.4918 63.6328 50.1475 64.0453 51.7354L65.6061 57.7444C65.7774 58.4039 65.7774 59.0961 65.6061 59.7556L64.0453 65.7646C63.6328 67.3525 63.5504 69.0082 63.803 70.6292L64.9603 78.0553C64.9894 78.242 65.0052 78.4304 65.0077 78.6193L65.8951 146.948C65.924 149.177 64.1249 151 61.8954 151H8.10457C5.87512 151 4.07596 149.177 4.10491 146.948L4.99229 78.6193C4.99475 78.4304 5.01058 78.242 5.03966 78.0553L6.19698 70.6292C6.44961 69.0082 6.36715 67.3525 5.9547 65.7646L4.39392 59.7556C4.22263 59.0961 4.22263 58.4039 4.39392 57.7444L5.9547 51.7354C6.36715 50.1475 6.44961 48.4918 6.19698 46.8708L4.96803 38.985L4.2622 32.1914C4.17029 31.3068 4.37582 30.4168 4.84631 29.662L5.08312 29.2821C5.51022 28.597 6.13465 28.0572 6.87432 27.7335ZM52 17.0319C40.7781 19.2768 29.2219 19.2768 18 17.0319V9C18 6.79086 19.7909 5 22 5H48C50.2091 5 52 6.79086 52 9V17.0319Z" stroke="#28A0D4" stroke-width="8"/>
<path d="M37.7188 46.25V55.5312H32.875V46.25H37.7188ZM37.125 97.2812V105.656H32.3125V97.2812H37.125ZM41.1875 87.0938C41.1875 85.9062 40.9583 84.875 40.5 84C40.0625 83.125 39.3229 82.3438 38.2812 81.6562C37.2604 80.9688 35.8854 80.3125 34.1562 79.6875C31.4688 78.7083 29.1146 77.6354 27.0938 76.4688C25.0729 75.2812 23.5 73.8125 22.375 72.0625C21.2708 70.3125 20.7188 68.1042 20.7188 65.4375C20.7188 62.875 21.3125 60.6562 22.5 58.7812C23.7083 56.8854 25.3854 55.4271 27.5312 54.4062C29.6771 53.3646 32.1667 52.8438 35 52.8438C37.2083 52.8438 39.1875 53.1771 40.9375 53.8438C42.7083 54.4896 44.2188 55.4375 45.4688 56.6875C46.7396 57.9375 47.7083 59.4792 48.375 61.3125C49.0625 63.125 49.4062 65.1979 49.4062 67.5312H41.1562C41.1562 66.2396 41.0104 65.0938 40.7188 64.0938C40.4271 63.0938 40.0104 62.25 39.4688 61.5625C38.9271 60.8542 38.2708 60.3229 37.5 59.9688C36.75 59.6146 35.8958 59.4375 34.9375 59.4375C33.5625 59.4375 32.4271 59.6979 31.5312 60.2188C30.6562 60.7396 30.0104 61.4479 29.5938 62.3438C29.1979 63.2396 29 64.2708 29 65.4375C29 66.5625 29.2083 67.5521 29.625 68.4062C30.0625 69.2396 30.7917 70 31.8125 70.6875C32.8542 71.375 34.2812 72.0729 36.0938 72.7812C38.8021 73.7812 41.1562 74.8854 43.1562 76.0938C45.1562 77.2812 46.7083 78.7396 47.8125 80.4688C48.9167 82.1979 49.4688 84.3854 49.4688 87.0312C49.4688 89.7396 48.8438 92.0312 47.5938 93.9062C46.3646 95.7812 44.6354 97.2083 42.4062 98.1875C40.1771 99.1667 37.5833 99.6562 34.625 99.6562C32.7292 99.6562 30.8542 99.4062 29 98.9062C27.1458 98.4062 25.4583 97.5938 23.9375 96.4688C22.4375 95.3229 21.2396 93.8125 20.3438 91.9375C19.4479 90.0417 19 87.7188 19 84.9688H27.2812C27.2812 86.5521 27.4896 87.8646 27.9062 88.9062C28.3229 89.9479 28.8854 90.7812 29.5938 91.4062C30.3021 92.0104 31.0938 92.4375 31.9688 92.6875C32.8438 92.9375 33.7292 93.0625 34.625 93.0625C36.0833 93.0625 37.2917 92.8125 38.25 92.3125C39.2292 91.8125 39.9583 91.1146 40.4375 90.2188C40.9375 89.3021 41.1875 88.2604 41.1875 87.0938Z" fill="#52DE3B"/>
</svg>
