<svg width="200" height="200" viewBox="0 0 200 200" fill="none" xmlns="http://www.w3.org/2000/svg">
<path d="M71.8743 49.7335L79.391 46.445C92.9634 49.4724 107.037 49.4724 120.609 46.445L128.126 49.7336C128.865 50.0572 129.49 50.597 129.917 51.2821L130.154 51.662C130.624 52.4168 130.83 53.3068 130.738 54.1914L130.032 60.985L128.803 68.8708C128.55 70.4918 128.633 72.1475 129.045 73.7354L130.606 79.7444C130.777 80.4039 130.777 81.0961 130.606 81.7556L129.045 87.7646C128.633 89.3525 128.55 91.0082 128.803 92.6292L129.96 100.055C129.989 100.242 130.005 100.43 130.008 100.619L130.895 168.948C130.924 171.177 129.125 173 126.895 173H73.1046C70.8751 173 69.076 171.177 69.1049 168.948L69.9923 100.619C69.9947 100.43 70.0106 100.242 70.0397 100.055L71.197 92.6292C71.4496 91.0082 71.3672 89.3525 70.9547 87.7646L69.3939 81.7556C69.2226 81.0961 69.2226 80.4039 69.3939 79.7444L70.9547 73.7354C71.3672 72.1475 71.4496 70.4918 71.197 68.8708L69.968 60.985L69.2622 54.1914C69.1703 53.3068 69.3758 52.4168 69.8463 51.662L70.0831 51.2821C70.5102 50.597 71.1347 50.0572 71.8743 49.7335ZM117 39.0319C105.778 41.2768 94.2219 41.2768 83 39.0319V31C83 28.7909 84.7909 27 87 27H113C115.209 27 117 28.7909 117 31V39.0319Z" stroke="#28A0D4" stroke-width="8"/>
<path d="M102.719 68.25V77.5312H97.875V68.25H102.719ZM102.125 119.281V127.656H97.3125V119.281H102.125ZM106.188 109.094C106.188 107.906 105.958 106.875 105.5 106C105.062 105.125 104.323 104.344 103.281 103.656C102.26 102.969 100.885 102.312 99.1562 101.688C96.4688 100.708 94.1146 99.6354 92.0938 98.4688C90.0729 97.2812 88.5 95.8125 87.375 94.0625C86.2708 92.3125 85.7188 90.1042 85.7188 87.4375C85.7188 84.875 86.3125 82.6562 87.5 80.7812C88.7083 78.8854 90.3854 77.4271 92.5312 76.4062C94.6771 75.3646 97.1667 74.8438 100 74.8438C102.208 74.8438 104.188 75.1771 105.938 75.8438C107.708 76.4896 109.219 77.4375 110.469 78.6875C111.74 79.9375 112.708 81.4792 113.375 83.3125C114.062 85.125 114.406 87.1979 114.406 89.5312H106.156C106.156 88.2396 106.01 87.0938 105.719 86.0938C105.427 85.0938 105.01 84.25 104.469 83.5625C103.927 82.8542 103.271 82.3229 102.5 81.9688C101.75 81.6146 100.896 81.4375 99.9375 81.4375C98.5625 81.4375 97.4271 81.6979 96.5312 82.2188C95.6562 82.7396 95.0104 83.4479 94.5938 84.3438C94.1979 85.2396 94 86.2708 94 87.4375C94 88.5625 94.2083 89.5521 94.625 90.4062C95.0625 91.2396 95.7917 92 96.8125 92.6875C97.8542 93.375 99.2812 94.0729 101.094 94.7812C103.802 95.7812 106.156 96.8854 108.156 98.0938C110.156 99.2812 111.708 100.74 112.812 102.469C113.917 104.198 114.469 106.385 114.469 109.031C114.469 111.74 113.844 114.031 112.594 115.906C111.365 117.781 109.635 119.208 107.406 120.188C105.177 121.167 102.583 121.656 99.625 121.656C97.7292 121.656 95.8542 121.406 94 120.906C92.1458 120.406 90.4583 119.594 88.9375 118.469C87.4375 117.323 86.2396 115.812 85.3438 113.938C84.4479 112.042 84 109.719 84 106.969H92.2812C92.2812 108.552 92.4896 109.865 92.9062 110.906C93.3229 111.948 93.8854 112.781 94.5938 113.406C95.3021 114.01 96.0938 114.438 96.9688 114.688C97.8438 114.938 98.7292 115.062 99.625 115.062C101.083 115.062 102.292 114.812 103.25 114.312C104.229 113.812 104.958 113.115 105.438 112.219C105.938 111.302 106.188 110.26 106.188 109.094Z" fill="#52DE3B"/>
</svg>
