<svg width="1280" height="900" viewBox="0 0 1280 900" fill="none" xmlns="http://www.w3.org/2000/svg">
<g clip-path="url(#clip0_173_38)">
<rect width="1280" height="900" fill="white"/>
<g clip-path="url(#clip1_173_38)">
<rect x="147" y="966" width="468" height="980" rx="51" transform="rotate(-90 147 966)" stroke="#AFAFAF" stroke-width="22"/>
<path d="M331 488V486.5C331 485.672 331.672 485 332.5 485H425.5C426.328 485 427 485.672 427 486.5V488H331Z" fill="#AFAFAF"/>
</g>
<g clip-path="url(#clip2_173_38)">
<rect x="161.882" y="950.588" width="441.176" height="955.294" rx="40" transform="rotate(-90 161.882 950.588)" fill="#1E1E20"/>
<g clip-path="url(#clip3_173_38)">
<rect width="442" height="955" transform="matrix(0 -1 1 0 162 951)" fill="white"/>
<path d="M549.507 639.75V708H533.054V639.75H549.507ZM570.038 639.75V652.453H512.991V639.75H570.038ZM589.116 669.844V708H573.319V657.281H588.085L589.116 669.844ZM604.116 656.906L603.835 671.578C603.21 671.516 602.366 671.438 601.304 671.344C600.241 671.25 599.35 671.203 598.632 671.203C596.788 671.203 595.194 671.422 593.85 671.859C592.538 672.266 591.444 672.891 590.569 673.734C589.725 674.547 589.1 675.578 588.694 676.828C588.319 678.078 588.147 679.531 588.179 681.188L585.319 679.312C585.319 675.906 585.647 672.812 586.304 670.031C586.991 667.219 587.96 664.797 589.21 662.766C590.46 660.703 591.975 659.125 593.757 658.031C595.538 656.906 597.538 656.344 599.757 656.344C600.538 656.344 601.304 656.391 602.054 656.484C602.835 656.578 603.522 656.719 604.116 656.906ZM634.491 695.25V674.344C634.491 672.906 634.288 671.672 633.882 670.641C633.475 669.609 632.835 668.812 631.96 668.25C631.085 667.656 629.913 667.359 628.444 667.359C627.257 667.359 626.241 667.562 625.397 667.969C624.554 668.375 623.913 668.984 623.475 669.797C623.038 670.609 622.819 671.641 622.819 672.891H607.022C607.022 670.547 607.538 668.375 608.569 666.375C609.632 664.344 611.132 662.578 613.069 661.078C615.038 659.578 617.382 658.422 620.1 657.609C622.85 656.766 625.913 656.344 629.288 656.344C633.319 656.344 636.913 657.016 640.069 658.359C643.257 659.703 645.772 661.719 647.616 664.406C649.46 667.062 650.382 670.406 650.382 674.438V695.203C650.382 698.516 650.569 701.031 650.944 702.75C651.319 704.438 651.85 705.922 652.538 707.203V708H636.694C635.944 706.438 635.382 704.531 635.007 702.281C634.663 700 634.491 697.656 634.491 695.25ZM636.413 677.016L636.507 685.453H629.522C628.054 685.453 626.804 685.656 625.772 686.062C624.772 686.469 623.96 687.031 623.335 687.75C622.741 688.438 622.304 689.219 622.022 690.094C621.772 690.969 621.647 691.891 621.647 692.859C621.647 693.797 621.866 694.641 622.304 695.391C622.772 696.109 623.397 696.672 624.179 697.078C624.96 697.484 625.835 697.688 626.804 697.688C628.554 697.688 630.038 697.359 631.257 696.703C632.507 696.016 633.46 695.188 634.116 694.219C634.772 693.25 635.1 692.344 635.1 691.5L638.569 697.969C637.944 699.219 637.225 700.484 636.413 701.766C635.632 703.047 634.647 704.234 633.46 705.328C632.304 706.391 630.882 707.266 629.194 707.953C627.507 708.609 625.46 708.938 623.054 708.938C619.929 708.938 617.054 708.297 614.429 707.016C611.835 705.734 609.757 703.953 608.194 701.672C606.632 699.359 605.85 696.703 605.85 693.703C605.85 691.078 606.319 688.734 607.257 686.672C608.225 684.609 609.679 682.859 611.616 681.422C613.554 679.984 616.022 678.891 619.022 678.141C622.022 677.391 625.554 677.016 629.616 677.016H636.413ZM685.725 693.75C685.725 692.875 685.429 692.125 684.835 691.5C684.272 690.844 683.272 690.25 681.835 689.719C680.397 689.156 678.382 688.594 675.788 688.031C673.319 687.5 670.991 686.797 668.804 685.922C666.647 685.047 664.757 683.984 663.132 682.734C661.507 681.484 660.225 680 659.288 678.281C658.382 676.562 657.929 674.594 657.929 672.375C657.929 670.219 658.382 668.188 659.288 666.281C660.225 664.344 661.585 662.641 663.366 661.172C665.179 659.672 667.382 658.5 669.975 657.656C672.569 656.781 675.522 656.344 678.835 656.344C683.397 656.344 687.335 657.047 690.647 658.453C693.96 659.828 696.507 661.766 698.288 664.266C700.1 666.734 701.007 669.594 701.007 672.844H685.21C685.21 671.562 684.991 670.469 684.554 669.562C684.147 668.656 683.475 667.969 682.538 667.5C681.6 667 680.35 666.75 678.788 666.75C677.694 666.75 676.694 666.953 675.788 667.359C674.913 667.766 674.21 668.328 673.679 669.047C673.147 669.766 672.882 670.609 672.882 671.578C672.882 672.266 673.038 672.891 673.35 673.453C673.694 673.984 674.21 674.484 674.897 674.953C675.585 675.391 676.46 675.797 677.522 676.172C678.585 676.516 679.866 676.828 681.366 677.109C684.772 677.734 687.96 678.625 690.929 679.781C693.897 680.938 696.304 682.578 698.147 684.703C700.022 686.828 700.96 689.688 700.96 693.281C700.96 695.531 700.444 697.609 699.413 699.516C698.382 701.391 696.897 703.047 694.96 704.484C693.022 705.891 690.694 706.984 687.975 707.766C685.257 708.547 682.194 708.938 678.788 708.938C673.944 708.938 669.85 708.078 666.507 706.359C663.163 704.609 660.632 702.422 658.913 699.797C657.225 697.141 656.382 694.453 656.382 691.734H671.1C671.163 693.297 671.538 694.578 672.225 695.578C672.944 696.578 673.897 697.312 675.085 697.781C676.272 698.25 677.647 698.484 679.21 698.484C680.647 698.484 681.835 698.281 682.772 697.875C683.741 697.469 684.475 696.922 684.975 696.234C685.475 695.516 685.725 694.688 685.725 693.75ZM723.835 636V708H708.038V636H723.835ZM721.96 680.906L718.257 681C718.257 677.438 718.694 674.156 719.569 671.156C720.444 668.156 721.694 665.547 723.319 663.328C724.944 661.109 726.897 659.391 729.179 658.172C731.46 656.953 733.991 656.344 736.772 656.344C739.272 656.344 741.554 656.703 743.616 657.422C745.71 658.141 747.507 659.297 749.007 660.891C750.538 662.484 751.71 664.562 752.522 667.125C753.366 669.688 753.788 672.812 753.788 676.5V708H737.897V676.406C737.897 674.344 737.6 672.75 737.007 671.625C736.444 670.469 735.632 669.672 734.569 669.234C733.507 668.766 732.21 668.531 730.679 668.531C728.835 668.531 727.335 668.844 726.179 669.469C725.022 670.094 724.132 670.969 723.507 672.094C722.913 673.188 722.507 674.484 722.288 675.984C722.069 677.484 721.96 679.125 721.96 680.906Z" fill="#28A0D4"/>
<path d="M524.616 732.397H538.022L553.257 779.881L568.491 732.397H581.897L558.694 800.647H547.819L524.616 732.397ZM516.46 732.397H530.335L532.913 784.71V800.647H516.46V732.397ZM576.179 732.397H590.1V800.647H573.6V784.71L576.179 732.397ZM597.929 775.803V774.819C597.929 771.1 598.46 767.678 599.522 764.553C600.585 761.397 602.147 758.663 604.21 756.35C606.272 754.038 608.819 752.241 611.85 750.96C614.882 749.647 618.382 748.991 622.35 748.991C626.35 748.991 629.866 749.647 632.897 750.96C635.96 752.241 638.522 754.038 640.585 756.35C642.647 758.663 644.21 761.397 645.272 764.553C646.335 767.678 646.866 771.1 646.866 774.819V775.803C646.866 779.491 646.335 782.913 645.272 786.069C644.21 789.194 642.647 791.928 640.585 794.272C638.522 796.585 635.975 798.381 632.944 799.663C629.913 800.944 626.413 801.585 622.444 801.585C618.475 801.585 614.96 800.944 611.897 799.663C608.835 798.381 606.272 796.585 604.21 794.272C602.147 791.928 600.585 789.194 599.522 786.069C598.46 782.913 597.929 779.491 597.929 775.803ZM613.725 774.819V775.803C613.725 777.71 613.866 779.491 614.147 781.147C614.429 782.803 614.897 784.256 615.554 785.506C616.21 786.725 617.1 787.678 618.225 788.366C619.35 789.053 620.757 789.397 622.444 789.397C624.1 789.397 625.475 789.053 626.569 788.366C627.694 787.678 628.585 786.725 629.241 785.506C629.897 784.256 630.366 782.803 630.647 781.147C630.929 779.491 631.069 777.71 631.069 775.803V774.819C631.069 772.975 630.929 771.241 630.647 769.616C630.366 767.96 629.897 766.506 629.241 765.256C628.585 763.975 627.694 762.975 626.569 762.256C625.444 761.538 624.038 761.178 622.35 761.178C620.694 761.178 619.304 761.538 618.179 762.256C617.085 762.975 616.21 763.975 615.554 765.256C614.897 766.506 614.429 767.96 614.147 769.616C613.866 771.241 613.725 772.975 613.725 774.819ZM669.413 760.756V800.647H653.616V749.928H668.429L669.413 760.756ZM667.538 773.553L663.835 773.647C663.835 769.772 664.304 766.319 665.241 763.288C666.179 760.225 667.507 757.631 669.225 755.506C670.944 753.381 672.991 751.772 675.366 750.678C677.772 749.553 680.444 748.991 683.382 748.991C685.725 748.991 687.866 749.335 689.804 750.022C691.772 750.71 693.46 751.819 694.866 753.35C696.304 754.881 697.397 756.913 698.147 759.444C698.929 761.944 699.319 765.038 699.319 768.725V800.647H683.429V768.678C683.429 766.647 683.147 765.1 682.585 764.038C682.022 762.944 681.21 762.194 680.147 761.788C679.085 761.381 677.788 761.178 676.257 761.178C674.632 761.178 673.257 761.491 672.132 762.116C671.007 762.741 670.1 763.616 669.413 764.741C668.757 765.835 668.272 767.131 667.96 768.631C667.679 770.131 667.538 771.772 667.538 773.553ZM732.647 801.585C728.522 801.585 724.835 800.944 721.585 799.663C718.335 798.35 715.585 796.553 713.335 794.272C711.116 791.991 709.413 789.366 708.225 786.397C707.069 783.428 706.491 780.288 706.491 776.975V775.194C706.491 771.475 707.007 768.038 708.038 764.881C709.069 761.694 710.6 758.913 712.632 756.538C714.663 754.163 717.21 752.319 720.272 751.006C723.335 749.663 726.897 748.991 730.96 748.991C734.554 748.991 737.772 749.569 740.616 750.725C743.46 751.881 745.866 753.538 747.835 755.694C749.835 757.85 751.35 760.46 752.382 763.522C753.444 766.585 753.975 770.022 753.975 773.835V780.256H712.538V770.366H738.554V769.147C738.585 767.46 738.288 766.022 737.663 764.835C737.069 763.647 736.194 762.741 735.038 762.116C733.882 761.491 732.475 761.178 730.819 761.178C729.1 761.178 727.679 761.553 726.554 762.303C725.46 763.053 724.6 764.085 723.975 765.397C723.382 766.678 722.96 768.163 722.71 769.85C722.46 771.538 722.335 773.319 722.335 775.194V776.975C722.335 778.85 722.585 780.553 723.085 782.085C723.616 783.616 724.366 784.928 725.335 786.022C726.335 787.085 727.522 787.913 728.897 788.506C730.304 789.1 731.897 789.397 733.679 789.397C735.835 789.397 737.96 788.991 740.054 788.178C742.147 787.366 743.944 786.022 745.444 784.147L752.616 792.678C751.585 794.147 750.116 795.569 748.21 796.944C746.335 798.319 744.085 799.444 741.46 800.319C738.835 801.163 735.897 801.585 732.647 801.585ZM775.304 794.694L788.429 749.928H805.397L785.007 808.194C784.569 809.475 783.991 810.85 783.272 812.319C782.554 813.819 781.569 815.241 780.319 816.585C779.069 817.928 777.46 819.022 775.491 819.866C773.554 820.71 771.147 821.131 768.272 821.131C766.741 821.131 765.616 821.053 764.897 820.897C764.21 820.772 763.147 820.538 761.71 820.194V808.897C762.116 808.897 762.46 808.897 762.741 808.897C763.054 808.897 763.397 808.897 763.772 808.897C765.46 808.897 766.804 808.725 767.804 808.381C768.835 808.038 769.616 807.538 770.147 806.881C770.71 806.225 771.147 805.428 771.46 804.491L775.304 794.694ZM771.975 749.928L781.96 785.413L783.694 802.147H773.1L755.054 749.928H771.975Z" fill="#52DE3B"/>
<path d="M422.484 668.623L432.234 664.358C448.614 668.052 465.611 668.052 481.991 664.358L491.741 668.623C492.48 668.947 493.105 669.487 493.532 670.172L494.378 671.53C494.849 672.284 495.054 673.174 494.962 674.059L494.053 682.809L492.52 692.65C492.267 694.271 492.349 695.927 492.762 697.515L494.831 705.48C495.002 706.139 495.002 706.831 494.831 707.491L492.762 715.456C492.349 717.044 492.267 718.699 492.52 720.32L493.982 729.702C494.011 729.889 494.027 730.077 494.029 730.266L495.12 814.242C495.149 816.471 493.349 818.294 491.12 818.294H423.105C420.875 818.294 419.076 816.471 419.105 814.242L420.196 730.266C420.198 730.077 420.214 729.889 420.243 729.702L421.705 720.32C421.958 718.699 421.875 717.044 421.463 715.456L419.394 707.491C419.223 706.831 419.223 706.139 419.394 705.48L421.463 697.515C421.875 695.927 421.958 694.271 421.705 692.65L420.171 682.809L419.262 674.059C419.17 673.174 419.376 672.284 419.846 671.53L420.693 670.172C421.12 669.487 421.744 668.947 422.484 668.623ZM478.38 656.954C464.35 659.853 449.875 659.853 435.845 656.954V645C435.845 642.791 437.636 641 439.845 641H474.38C476.589 641 478.38 642.791 478.38 645V656.954Z" stroke="#28A0D4" stroke-width="8"/>
<path d="M455.97 692.614V701.895H451.126V692.614H455.97ZM455.376 743.645V752.02H450.564V743.645H455.376ZM459.439 733.457C459.439 732.27 459.21 731.239 458.751 730.364C458.314 729.489 457.574 728.707 456.533 728.02C455.512 727.332 454.137 726.676 452.408 726.051C449.72 725.072 447.366 723.999 445.345 722.832C443.324 721.645 441.751 720.176 440.626 718.426C439.522 716.676 438.97 714.468 438.97 711.801C438.97 709.239 439.564 707.02 440.751 705.145C441.96 703.249 443.637 701.791 445.783 700.77C447.928 699.728 450.418 699.207 453.251 699.207C455.46 699.207 457.439 699.541 459.189 700.207C460.96 700.853 462.47 701.801 463.72 703.051C464.991 704.301 465.96 705.843 466.626 707.676C467.314 709.489 467.658 711.562 467.658 713.895H459.408C459.408 712.603 459.262 711.457 458.97 710.457C458.678 709.457 458.262 708.614 457.72 707.926C457.178 707.218 456.522 706.687 455.751 706.332C455.001 705.978 454.147 705.801 453.189 705.801C451.814 705.801 450.678 706.062 449.783 706.582C448.908 707.103 448.262 707.812 447.845 708.707C447.449 709.603 447.251 710.634 447.251 711.801C447.251 712.926 447.46 713.916 447.876 714.77C448.314 715.603 449.043 716.364 450.064 717.051C451.106 717.739 452.533 718.437 454.345 719.145C457.053 720.145 459.408 721.249 461.408 722.457C463.408 723.645 464.96 725.103 466.064 726.832C467.168 728.562 467.72 730.749 467.72 733.395C467.72 736.103 467.095 738.395 465.845 740.27C464.616 742.145 462.887 743.572 460.658 744.551C458.428 745.53 455.835 746.02 452.876 746.02C450.981 746.02 449.106 745.77 447.251 745.27C445.397 744.77 443.71 743.957 442.189 742.832C440.689 741.687 439.491 740.176 438.595 738.301C437.699 736.405 437.251 734.082 437.251 731.332H445.533C445.533 732.916 445.741 734.228 446.158 735.27C446.574 736.312 447.137 737.145 447.845 737.77C448.553 738.374 449.345 738.801 450.22 739.051C451.095 739.301 451.981 739.426 452.876 739.426C454.335 739.426 455.543 739.176 456.501 738.676C457.481 738.176 458.21 737.478 458.689 736.582C459.189 735.666 459.439 734.624 459.439 733.457Z" fill="#52DE3B"/>
<circle cx="270" cy="533" r="150" fill="#28A0D4"/>
<circle cx="1022" cy="951" r="150" fill="#28A0D4"/>
<circle cx="134" cy="651" r="150" fill="#52DE3B"/>
<circle cx="1148" cy="787" r="150" fill="#52DE3B"/>
</g>
<mask id="path-13-inside-1_173_38" fill="white">
<path fill-rule="evenodd" clip-rule="evenodd" d="M178.263 947.318C184.68 950.588 193.081 950.588 209.882 950.588L1069 950.588C1085.8 950.588 1094.2 950.588 1100.62 947.318C1106.26 944.442 1110.85 939.853 1113.73 934.208C1117 927.791 1117 919.39 1117 902.588V557C1117 540.198 1117 531.798 1113.73 525.38C1110.85 519.735 1106.26 515.146 1100.62 512.27C1094.2 509 1085.8 509 1069 509L209.882 509C193.081 509 184.68 509 178.263 512.27C172.618 515.146 168.028 519.735 165.152 525.38C161.882 531.798 161.882 540.198 161.882 557L161.882 607.029C161.882 610.694 164.627 613.442 168.286 613.442H161.882L180.415 613.442C188.369 613.442 194.817 619.89 194.817 627.845L194.817 831.744C194.817 839.698 188.369 846.146 180.415 846.146H169.165C165.518 846.17 161.882 849.823 161.882 853.475V902.588C161.882 919.39 161.882 927.791 165.152 934.208C168.028 939.853 172.618 944.442 178.263 947.318Z"/>
</mask>
<path d="M178.263 947.318L178.036 947.764L178.036 947.764L178.263 947.318ZM1100.62 947.318L1100.39 946.873L1100.39 946.873L1100.62 947.318ZM1113.73 934.208L1114.18 934.435L1114.18 934.435L1113.73 934.208ZM1113.73 525.38L1114.18 525.153L1114.18 525.153L1113.73 525.38ZM1100.62 512.27L1100.39 512.715L1100.39 512.715L1100.62 512.27ZM178.263 512.27L178.49 512.715L178.49 512.715L178.263 512.27ZM165.152 525.38L164.707 525.153L164.707 525.153L165.152 525.38ZM161.882 613.442V612.942L161.882 613.942L161.882 613.442ZM180.415 613.442L180.415 613.942H180.415V613.442ZM169.165 846.146V845.646L169.162 845.646L169.165 846.146ZM165.152 934.208L164.707 934.435L164.707 934.435L165.152 934.208ZM209.882 950.088C201.473 950.088 195.197 950.088 190.219 949.681C185.247 949.275 181.616 948.466 178.49 946.873L178.036 947.764C181.327 949.441 185.104 950.267 190.138 950.678C195.165 951.089 201.49 951.088 209.882 951.088V950.088ZM1069 950.088L209.882 950.088V951.088L1069 951.088V950.088ZM1100.39 946.873C1097.27 948.466 1093.63 949.275 1088.66 949.681C1083.69 950.088 1077.41 950.088 1069 950.088V951.088C1077.39 951.088 1083.72 951.089 1088.74 950.678C1093.78 950.267 1097.56 949.441 1100.85 947.764L1100.39 946.873ZM1113.28 933.981C1110.46 939.532 1105.94 944.045 1100.39 946.873L1100.85 947.764C1106.59 944.84 1111.25 940.174 1114.18 934.435L1113.28 933.981ZM1116.5 902.588C1116.5 910.997 1116.5 917.274 1116.09 922.251C1115.69 927.223 1114.88 930.855 1113.28 933.981L1114.18 934.435C1115.85 931.144 1116.68 927.366 1117.09 922.333C1117.5 917.305 1117.5 910.981 1117.5 902.588H1116.5ZM1116.5 557V902.588H1117.5V557H1116.5ZM1113.28 525.607C1114.88 528.734 1115.69 532.365 1116.09 537.337C1116.5 542.314 1116.5 548.591 1116.5 557H1117.5C1117.5 548.607 1117.5 542.283 1117.09 537.255C1116.68 532.222 1115.85 528.444 1114.18 525.153L1113.28 525.607ZM1100.39 512.715C1105.94 515.544 1110.46 520.057 1113.28 525.607L1114.18 525.153C1111.25 519.414 1106.59 514.748 1100.85 511.824L1100.39 512.715ZM1069 509.5C1077.41 509.5 1083.69 509.5 1088.66 509.907C1093.63 510.313 1097.27 511.122 1100.39 512.715L1100.85 511.824C1097.56 510.148 1093.78 509.322 1088.74 508.91C1083.72 508.5 1077.39 508.5 1069 508.5V509.5ZM209.882 509.5L1069 509.5V508.5L209.882 508.5V509.5ZM178.49 512.715C181.616 511.122 185.247 510.313 190.219 509.907C195.197 509.5 201.473 509.5 209.882 509.5V508.5C201.49 508.5 195.165 508.5 190.138 508.91C185.104 509.322 181.327 510.148 178.036 511.824L178.49 512.715ZM165.598 525.607C168.426 520.057 172.939 515.544 178.49 512.715L178.036 511.824C172.297 514.748 167.631 519.414 164.707 525.153L165.598 525.607ZM162.382 557C162.382 548.591 162.383 542.314 162.789 537.337C163.196 532.365 164.005 528.734 165.598 525.607L164.707 525.153C163.03 528.444 162.204 532.222 161.793 537.255C161.382 542.283 161.382 548.608 161.382 557H162.382ZM162.382 607.029L162.382 557H161.382L161.382 607.029H162.382ZM168.286 612.942C164.904 612.942 162.382 610.418 162.382 607.029H161.382C161.382 610.969 164.35 613.942 168.286 613.942V612.942ZM161.882 613.942H168.286V612.942H161.882V613.942ZM180.415 612.942L161.882 612.942L161.882 613.942L180.415 613.942L180.415 612.942ZM195.317 627.845C195.317 619.614 188.645 612.942 180.415 612.942V613.942C188.093 613.942 194.317 620.167 194.317 627.845H195.317ZM195.317 831.744L195.317 627.845H194.317L194.317 831.744H195.317ZM180.415 846.646C188.645 846.646 195.317 839.974 195.317 831.744H194.317C194.317 839.422 188.093 845.646 180.415 845.646V846.646ZM169.165 846.646H180.415V845.646H169.165V846.646ZM162.382 853.475C162.382 851.811 163.216 850.105 164.511 848.803C165.806 847.5 167.506 846.657 169.169 846.646L169.162 845.646C167.177 845.659 165.236 846.655 163.801 848.098C162.367 849.541 161.382 851.487 161.382 853.475H162.382ZM162.382 902.588V853.475H161.382V902.588H162.382ZM165.598 933.981C164.005 930.855 163.196 927.223 162.789 922.251C162.383 917.274 162.382 910.997 162.382 902.588H161.382C161.382 910.981 161.382 917.305 161.793 922.333C162.204 927.366 163.03 931.144 164.707 934.435L165.598 933.981ZM178.49 946.873C172.939 944.045 168.426 939.532 165.598 933.981L164.707 934.435C167.631 940.174 172.297 944.84 178.036 947.764L178.49 946.873Z" fill="#1E1E20" style="mix-blend-mode:overlay" mask="url(#path-13-inside-1_173_38)"/>
<path fill-rule="evenodd" clip-rule="evenodd" d="M161.882 853C161.882 849.343 165.527 845.686 169.179 845.671H180.415C188.369 845.671 194.817 839.223 194.817 831.268L194.817 627.369C194.817 619.415 188.369 612.967 180.415 612.967H161.882L161.882 845.671V845.671V853ZM168.286 612.967C164.627 612.967 161.882 610.218 161.882 606.553V612.967H168.286Z" fill="#1E1E20"/>
<circle cx="6" cy="6" r="6" transform="matrix(0 1 1 0 165.882 691)" fill="#333333"/>
<rect x="167.882" y="768" width="50" height="8" rx="4" transform="rotate(-90 167.882 768)" fill="#333333"/>
</g>
<rect x="153.882" y="958.588" width="457.176" height="971.294" rx="48" transform="rotate(-90 153.882 958.588)" stroke="#1E1E20" stroke-width="16"/>
<path d="M442.094 231.5V277H436.156V231.5H442.094ZM456.719 231.5V236.438H421.562V231.5H456.719ZM463.469 231.5H478.531C481.948 231.5 484.833 232.021 487.188 233.062C489.562 234.104 491.365 235.646 492.594 237.688C493.844 239.708 494.469 242.198 494.469 245.156C494.469 247.24 494.042 249.146 493.188 250.875C492.354 252.583 491.146 254.042 489.562 255.25C488 256.438 486.125 257.323 483.938 257.906L482.25 258.562H468.094L468.031 253.656H478.719C480.885 253.656 482.688 253.281 484.125 252.531C485.562 251.76 486.646 250.729 487.375 249.438C488.104 248.146 488.469 246.719 488.469 245.156C488.469 243.406 488.125 241.875 487.438 240.562C486.75 239.25 485.667 238.24 484.188 237.531C482.729 236.802 480.844 236.438 478.531 236.438H469.5V277H463.469V231.5ZM490.062 277L479 256.375L485.281 256.344L496.5 276.625V277H490.062ZM519.75 235.531L504.688 277H498.531L515.875 231.5H519.844L519.75 235.531ZM532.375 277L517.281 235.531L517.188 231.5H521.156L538.562 277H532.375ZM531.594 260.156V265.094H506.031V260.156H531.594ZM568.906 265.5C568.906 264.438 568.74 263.5 568.406 262.688C568.094 261.854 567.531 261.104 566.719 260.438C565.927 259.771 564.823 259.135 563.406 258.531C562.01 257.927 560.24 257.312 558.094 256.688C555.844 256.021 553.812 255.281 552 254.469C550.188 253.635 548.635 252.688 547.344 251.625C546.052 250.562 545.062 249.344 544.375 247.969C543.688 246.594 543.344 245.021 543.344 243.25C543.344 241.479 543.708 239.844 544.438 238.344C545.167 236.844 546.208 235.542 547.562 234.438C548.938 233.312 550.573 232.438 552.469 231.812C554.365 231.188 556.479 230.875 558.812 230.875C562.229 230.875 565.125 231.531 567.5 232.844C569.896 234.135 571.719 235.833 572.969 237.938C574.219 240.021 574.844 242.25 574.844 244.625H568.844C568.844 242.917 568.479 241.406 567.75 240.094C567.021 238.76 565.917 237.719 564.438 236.969C562.958 236.198 561.083 235.812 558.812 235.812C556.667 235.812 554.896 236.135 553.5 236.781C552.104 237.427 551.062 238.302 550.375 239.406C549.708 240.51 549.375 241.771 549.375 243.188C549.375 244.146 549.573 245.021 549.969 245.812C550.385 246.583 551.021 247.302 551.875 247.969C552.75 248.635 553.854 249.25 555.188 249.812C556.542 250.375 558.156 250.917 560.031 251.438C562.615 252.167 564.844 252.979 566.719 253.875C568.594 254.771 570.135 255.781 571.344 256.906C572.573 258.01 573.479 259.271 574.062 260.688C574.667 262.083 574.969 263.667 574.969 265.438C574.969 267.292 574.594 268.969 573.844 270.469C573.094 271.969 572.021 273.25 570.625 274.312C569.229 275.375 567.552 276.198 565.594 276.781C563.656 277.344 561.49 277.625 559.094 277.625C556.99 277.625 554.917 277.333 552.875 276.75C550.854 276.167 549.01 275.292 547.344 274.125C545.698 272.958 544.375 271.521 543.375 269.812C542.396 268.083 541.906 266.083 541.906 263.812H547.906C547.906 265.375 548.208 266.719 548.812 267.844C549.417 268.948 550.24 269.865 551.281 270.594C552.344 271.323 553.542 271.865 554.875 272.219C556.229 272.552 557.635 272.719 559.094 272.719C561.198 272.719 562.979 272.427 564.438 271.844C565.896 271.26 567 270.427 567.75 269.344C568.521 268.26 568.906 266.979 568.906 265.5ZM612.375 251.062V255.969H587.75V251.062H612.375ZM588.688 231.5V277H582.656V231.5H588.688ZM617.625 231.5V277H611.625V231.5H617.625ZM646.125 231.5H651.969L666.875 268.594L681.75 231.5H687.625L669.125 277H664.562L646.125 231.5ZM644.219 231.5H649.375L650.219 259.25V277H644.219V231.5ZM684.344 231.5H689.5V277H683.5V259.25L684.344 231.5ZM735.125 252.812V255.688C735.125 259.104 734.698 262.167 733.844 264.875C732.99 267.583 731.76 269.885 730.156 271.781C728.552 273.677 726.625 275.125 724.375 276.125C722.146 277.125 719.646 277.625 716.875 277.625C714.188 277.625 711.719 277.125 709.469 276.125C707.24 275.125 705.302 273.677 703.656 271.781C702.031 269.885 700.771 267.583 699.875 264.875C698.979 262.167 698.531 259.104 698.531 255.688V252.812C698.531 249.396 698.969 246.344 699.844 243.656C700.74 240.948 702 238.646 703.625 236.75C705.25 234.833 707.177 233.375 709.406 232.375C711.656 231.375 714.125 230.875 716.812 230.875C719.583 230.875 722.083 231.375 724.312 232.375C726.562 233.375 728.49 234.833 730.094 236.75C731.719 238.646 732.958 240.948 733.812 243.656C734.688 246.344 735.125 249.396 735.125 252.812ZM729.156 255.688V252.75C729.156 250.042 728.875 247.646 728.312 245.562C727.771 243.479 726.969 241.729 725.906 240.312C724.844 238.896 723.542 237.823 722 237.094C720.479 236.365 718.75 236 716.812 236C714.938 236 713.24 236.365 711.719 237.094C710.219 237.823 708.927 238.896 707.844 240.312C706.781 241.729 705.958 243.479 705.375 245.562C704.792 247.646 704.5 250.042 704.5 252.75V255.688C704.5 258.417 704.792 260.833 705.375 262.938C705.958 265.021 706.792 266.781 707.875 268.219C708.979 269.635 710.281 270.708 711.781 271.438C713.302 272.167 715 272.531 716.875 272.531C718.833 272.531 720.573 272.167 722.094 271.438C723.615 270.708 724.896 269.635 725.938 268.219C727 266.781 727.802 265.021 728.344 262.938C728.885 260.833 729.156 258.417 729.156 255.688ZM779.156 231.5V277H773.094L750.188 241.906V277H744.156V231.5H750.188L773.188 266.688V231.5H779.156ZM818.75 272.094V277H794.656V272.094H818.75ZM795.875 231.5V277H789.844V231.5H795.875ZM815.562 251.062V255.969H794.656V251.062H815.562ZM818.438 231.5V236.438H794.656V231.5H818.438ZM828.312 231.5L840.125 254.344L851.969 231.5H858.812L843.125 260V277H837.094V260L821.406 231.5H828.312Z" fill="black"/>
<path d="M288.428 332.406V358H285.088V332.406H288.428ZM296.654 332.406V335.184H276.879V332.406H296.654ZM309.908 353.605V338.98H313.178V358H310.066L309.908 353.605ZM310.523 349.598L311.877 349.562C311.877 350.828 311.742 352 311.473 353.078C311.215 354.145 310.793 355.07 310.207 355.855C309.621 356.641 308.854 357.256 307.904 357.701C306.955 358.135 305.801 358.352 304.441 358.352C303.516 358.352 302.666 358.217 301.893 357.947C301.131 357.678 300.475 357.262 299.924 356.699C299.373 356.137 298.945 355.404 298.641 354.502C298.348 353.6 298.201 352.516 298.201 351.25V338.98H301.453V351.285C301.453 352.141 301.547 352.85 301.734 353.412C301.934 353.963 302.197 354.402 302.525 354.73C302.865 355.047 303.24 355.27 303.65 355.398C304.072 355.527 304.506 355.592 304.951 355.592C306.334 355.592 307.43 355.328 308.238 354.801C309.047 354.262 309.627 353.541 309.979 352.639C310.342 351.725 310.523 350.711 310.523 349.598ZM321.387 341.969V358H318.135V338.98H321.299L321.387 341.969ZM327.328 338.875L327.311 341.898C327.041 341.84 326.783 341.805 326.537 341.793C326.303 341.77 326.033 341.758 325.729 341.758C324.979 341.758 324.316 341.875 323.742 342.109C323.168 342.344 322.682 342.672 322.283 343.094C321.885 343.516 321.568 344.02 321.334 344.605C321.111 345.18 320.965 345.812 320.895 346.504L319.98 347.031C319.98 345.883 320.092 344.805 320.314 343.797C320.549 342.789 320.906 341.898 321.387 341.125C321.867 340.34 322.477 339.73 323.215 339.297C323.965 338.852 324.855 338.629 325.887 338.629C326.121 338.629 326.391 338.658 326.695 338.717C327 338.764 327.211 338.816 327.328 338.875ZM333.586 343.041V358H330.334V338.98H333.41L333.586 343.041ZM332.812 347.77L331.459 347.717C331.471 346.416 331.664 345.215 332.039 344.113C332.414 343 332.941 342.033 333.621 341.213C334.301 340.393 335.109 339.76 336.047 339.314C336.996 338.857 338.045 338.629 339.193 338.629C340.131 338.629 340.975 338.758 341.725 339.016C342.475 339.262 343.113 339.66 343.641 340.211C344.18 340.762 344.59 341.477 344.871 342.355C345.152 343.223 345.293 344.283 345.293 345.537V358H342.023V345.502C342.023 344.506 341.877 343.709 341.584 343.111C341.291 342.502 340.863 342.062 340.301 341.793C339.738 341.512 339.047 341.371 338.227 341.371C337.418 341.371 336.68 341.541 336.012 341.881C335.355 342.221 334.787 342.689 334.307 343.287C333.838 343.885 333.469 344.57 333.199 345.344C332.941 346.105 332.812 346.914 332.812 347.77ZM353.766 338.98V358H350.496V338.98H353.766ZM350.25 333.936C350.25 333.408 350.408 332.963 350.725 332.6C351.053 332.236 351.533 332.055 352.166 332.055C352.787 332.055 353.262 332.236 353.59 332.6C353.93 332.963 354.1 333.408 354.1 333.936C354.1 334.439 353.93 334.873 353.59 335.236C353.262 335.588 352.787 335.764 352.166 335.764C351.533 335.764 351.053 335.588 350.725 335.236C350.408 334.873 350.25 334.439 350.25 333.936ZM362.238 343.041V358H358.986V338.98H362.062L362.238 343.041ZM361.465 347.77L360.111 347.717C360.123 346.416 360.316 345.215 360.691 344.113C361.066 343 361.594 342.033 362.273 341.213C362.953 340.393 363.762 339.76 364.699 339.314C365.648 338.857 366.697 338.629 367.846 338.629C368.783 338.629 369.627 338.758 370.377 339.016C371.127 339.262 371.766 339.66 372.293 340.211C372.832 340.762 373.242 341.477 373.523 342.355C373.805 343.223 373.945 344.283 373.945 345.537V358H370.676V345.502C370.676 344.506 370.529 343.709 370.236 343.111C369.943 342.502 369.516 342.062 368.953 341.793C368.391 341.512 367.699 341.371 366.879 341.371C366.07 341.371 365.332 341.541 364.664 341.881C364.008 342.221 363.439 342.689 362.959 343.287C362.49 343.885 362.121 344.57 361.852 345.344C361.594 346.105 361.465 346.914 361.465 347.77ZM391.207 338.98H394.16V357.596C394.16 359.271 393.82 360.701 393.141 361.885C392.461 363.068 391.512 363.965 390.293 364.574C389.086 365.195 387.691 365.506 386.109 365.506C385.453 365.506 384.68 365.4 383.789 365.189C382.91 364.99 382.043 364.645 381.188 364.152C380.344 363.672 379.635 363.021 379.061 362.201L380.766 360.268C381.562 361.229 382.395 361.896 383.262 362.271C384.141 362.646 385.008 362.834 385.863 362.834C386.895 362.834 387.785 362.641 388.535 362.254C389.285 361.867 389.865 361.293 390.275 360.531C390.697 359.781 390.908 358.855 390.908 357.754V343.164L391.207 338.98ZM378.111 348.701V348.332C378.111 346.879 378.281 345.561 378.621 344.377C378.973 343.182 379.471 342.156 380.115 341.301C380.771 340.445 381.562 339.789 382.488 339.332C383.414 338.863 384.457 338.629 385.617 338.629C386.812 338.629 387.855 338.84 388.746 339.262C389.648 339.672 390.41 340.275 391.031 341.072C391.664 341.857 392.162 342.807 392.525 343.92C392.889 345.033 393.141 346.293 393.281 347.699V349.316C393.152 350.711 392.9 351.965 392.525 353.078C392.162 354.191 391.664 355.141 391.031 355.926C390.41 356.711 389.648 357.314 388.746 357.736C387.844 358.146 386.789 358.352 385.582 358.352C384.445 358.352 383.414 358.111 382.488 357.631C381.574 357.15 380.789 356.477 380.133 355.609C379.477 354.742 378.973 353.723 378.621 352.551C378.281 351.367 378.111 350.084 378.111 348.701ZM381.363 348.332V348.701C381.363 349.65 381.457 350.541 381.645 351.373C381.844 352.205 382.143 352.938 382.541 353.57C382.951 354.203 383.473 354.701 384.105 355.064C384.738 355.416 385.494 355.592 386.373 355.592C387.451 355.592 388.342 355.363 389.045 354.906C389.748 354.449 390.305 353.846 390.715 353.096C391.137 352.346 391.465 351.531 391.699 350.652V346.416C391.57 345.771 391.371 345.15 391.102 344.553C390.844 343.943 390.504 343.404 390.082 342.936C389.672 342.455 389.162 342.074 388.553 341.793C387.943 341.512 387.229 341.371 386.408 341.371C385.518 341.371 384.75 341.559 384.105 341.934C383.473 342.297 382.951 342.801 382.541 343.445C382.143 344.078 381.844 344.816 381.645 345.66C381.457 346.492 381.363 347.383 381.363 348.332ZM417.275 332.406V358H413.936V332.406H417.275ZM425.502 332.406V335.184H405.727V332.406H425.502ZM430.723 341.969V358H427.471V338.98H430.635L430.723 341.969ZM436.664 338.875L436.646 341.898C436.377 341.84 436.119 341.805 435.873 341.793C435.639 341.77 435.369 341.758 435.064 341.758C434.314 341.758 433.652 341.875 433.078 342.109C432.504 342.344 432.018 342.672 431.619 343.094C431.221 343.516 430.904 344.02 430.67 344.605C430.447 345.18 430.301 345.812 430.23 346.504L429.316 347.031C429.316 345.883 429.428 344.805 429.65 343.797C429.885 342.789 430.242 341.898 430.723 341.125C431.203 340.34 431.812 339.73 432.551 339.297C433.301 338.852 434.191 338.629 435.223 338.629C435.457 338.629 435.727 338.658 436.031 338.717C436.336 338.764 436.547 338.816 436.664 338.875ZM450.182 354.748V344.957C450.182 344.207 450.029 343.557 449.725 343.006C449.432 342.443 448.986 342.01 448.389 341.705C447.791 341.4 447.053 341.248 446.174 341.248C445.354 341.248 444.633 341.389 444.012 341.67C443.402 341.951 442.922 342.32 442.57 342.777C442.23 343.234 442.061 343.727 442.061 344.254H438.809C438.809 343.574 438.984 342.9 439.336 342.232C439.688 341.564 440.191 340.961 440.848 340.422C441.516 339.871 442.312 339.438 443.238 339.121C444.176 338.793 445.219 338.629 446.367 338.629C447.75 338.629 448.969 338.863 450.023 339.332C451.09 339.801 451.922 340.51 452.52 341.459C453.129 342.396 453.434 343.574 453.434 344.992V353.852C453.434 354.484 453.486 355.158 453.592 355.873C453.709 356.588 453.879 357.203 454.102 357.719V358H450.709C450.545 357.625 450.416 357.127 450.322 356.506C450.229 355.873 450.182 355.287 450.182 354.748ZM450.744 346.469L450.779 348.754H447.492C446.566 348.754 445.74 348.83 445.014 348.982C444.287 349.123 443.678 349.34 443.186 349.633C442.693 349.926 442.318 350.295 442.061 350.74C441.803 351.174 441.674 351.684 441.674 352.27C441.674 352.867 441.809 353.412 442.078 353.904C442.348 354.396 442.752 354.789 443.291 355.082C443.842 355.363 444.516 355.504 445.312 355.504C446.309 355.504 447.188 355.293 447.949 354.871C448.711 354.449 449.314 353.934 449.76 353.324C450.217 352.715 450.463 352.123 450.498 351.549L451.887 353.113C451.805 353.605 451.582 354.15 451.219 354.748C450.855 355.346 450.369 355.92 449.76 356.471C449.162 357.01 448.447 357.461 447.615 357.824C446.795 358.176 445.869 358.352 444.838 358.352C443.549 358.352 442.418 358.1 441.445 357.596C440.484 357.092 439.734 356.418 439.195 355.574C438.668 354.719 438.404 353.764 438.404 352.709C438.404 351.689 438.604 350.793 439.002 350.02C439.4 349.234 439.975 348.584 440.725 348.068C441.475 347.541 442.377 347.143 443.432 346.873C444.486 346.604 445.664 346.469 446.965 346.469H450.744ZM469.623 352.955C469.623 352.486 469.518 352.053 469.307 351.654C469.107 351.244 468.691 350.875 468.059 350.547C467.438 350.207 466.5 349.914 465.246 349.668C464.191 349.445 463.236 349.182 462.381 348.877C461.537 348.572 460.816 348.203 460.219 347.77C459.633 347.336 459.182 346.826 458.865 346.24C458.549 345.654 458.391 344.969 458.391 344.184C458.391 343.434 458.555 342.725 458.883 342.057C459.223 341.389 459.697 340.797 460.307 340.281C460.928 339.766 461.672 339.361 462.539 339.068C463.406 338.775 464.373 338.629 465.439 338.629C466.963 338.629 468.264 338.898 469.342 339.438C470.42 339.977 471.246 340.697 471.82 341.6C472.395 342.49 472.682 343.48 472.682 344.57H469.43C469.43 344.043 469.271 343.533 468.955 343.041C468.65 342.537 468.199 342.121 467.602 341.793C467.016 341.465 466.295 341.301 465.439 341.301C464.537 341.301 463.805 341.441 463.242 341.723C462.691 341.992 462.287 342.338 462.029 342.76C461.783 343.182 461.66 343.627 461.66 344.096C461.66 344.447 461.719 344.764 461.836 345.045C461.965 345.314 462.188 345.566 462.504 345.801C462.82 346.023 463.266 346.234 463.84 346.434C464.414 346.633 465.146 346.832 466.037 347.031C467.596 347.383 468.879 347.805 469.887 348.297C470.895 348.789 471.645 349.393 472.137 350.107C472.629 350.822 472.875 351.689 472.875 352.709C472.875 353.541 472.699 354.303 472.348 354.994C472.008 355.686 471.51 356.283 470.854 356.787C470.209 357.279 469.436 357.666 468.533 357.947C467.643 358.217 466.641 358.352 465.527 358.352C463.852 358.352 462.434 358.053 461.273 357.455C460.113 356.857 459.234 356.084 458.637 355.135C458.039 354.186 457.74 353.184 457.74 352.129H461.01C461.057 353.02 461.314 353.729 461.783 354.256C462.252 354.771 462.826 355.141 463.506 355.363C464.186 355.574 464.859 355.68 465.527 355.68C466.418 355.68 467.162 355.562 467.76 355.328C468.369 355.094 468.832 354.771 469.148 354.361C469.465 353.951 469.623 353.482 469.623 352.955ZM480.398 331V358H477.146V331H480.398ZM479.625 347.77L478.271 347.717C478.283 346.416 478.477 345.215 478.852 344.113C479.227 343 479.754 342.033 480.434 341.213C481.113 340.393 481.922 339.76 482.859 339.314C483.809 338.857 484.857 338.629 486.006 338.629C486.943 338.629 487.787 338.758 488.537 339.016C489.287 339.262 489.926 339.66 490.453 340.211C490.992 340.762 491.402 341.477 491.684 342.355C491.965 343.223 492.105 344.283 492.105 345.537V358H488.836V345.502C488.836 344.506 488.689 343.709 488.396 343.111C488.104 342.502 487.676 342.062 487.113 341.793C486.551 341.512 485.859 341.371 485.039 341.371C484.23 341.371 483.492 341.541 482.824 341.881C482.168 342.221 481.6 342.689 481.119 343.287C480.65 343.885 480.281 344.57 480.012 345.344C479.754 346.105 479.625 346.914 479.625 347.77ZM509.438 338.98V358H506.168V338.98H509.438ZM505.922 333.936C505.922 333.408 506.08 332.963 506.396 332.6C506.725 332.236 507.205 332.055 507.838 332.055C508.459 332.055 508.934 332.236 509.262 332.6C509.602 332.963 509.771 333.408 509.771 333.936C509.771 334.439 509.602 334.873 509.262 335.236C508.934 335.588 508.459 335.764 507.838 335.764C507.205 335.764 506.725 335.588 506.396 335.236C506.08 334.873 505.922 334.439 505.922 333.936ZM517.91 343.041V358H514.658V338.98H517.734L517.91 343.041ZM517.137 347.77L515.783 347.717C515.795 346.416 515.988 345.215 516.363 344.113C516.738 343 517.266 342.033 517.945 341.213C518.625 340.393 519.434 339.76 520.371 339.314C521.32 338.857 522.369 338.629 523.518 338.629C524.455 338.629 525.299 338.758 526.049 339.016C526.799 339.262 527.438 339.66 527.965 340.211C528.504 340.762 528.914 341.477 529.195 342.355C529.477 343.223 529.617 344.283 529.617 345.537V358H526.348V345.502C526.348 344.506 526.201 343.709 525.908 343.111C525.615 342.502 525.188 342.062 524.625 341.793C524.062 341.512 523.371 341.371 522.551 341.371C521.742 341.371 521.004 341.541 520.336 341.881C519.68 342.221 519.111 342.689 518.631 343.287C518.162 343.885 517.793 344.57 517.523 345.344C517.266 346.105 517.137 346.914 517.137 347.77ZM542.52 338.98V341.477H532.236V338.98H542.52ZM535.717 334.357H538.969V353.289C538.969 353.934 539.068 354.42 539.268 354.748C539.467 355.076 539.725 355.293 540.041 355.398C540.357 355.504 540.697 355.557 541.061 355.557C541.33 355.557 541.611 355.533 541.904 355.486C542.209 355.428 542.438 355.381 542.59 355.346L542.607 358C542.35 358.082 542.01 358.158 541.588 358.229C541.178 358.311 540.68 358.352 540.094 358.352C539.297 358.352 538.564 358.193 537.896 357.877C537.229 357.561 536.695 357.033 536.297 356.295C535.91 355.545 535.717 354.537 535.717 353.271V334.357ZM545.121 348.701V348.297C545.121 346.926 545.32 345.654 545.719 344.482C546.117 343.299 546.691 342.273 547.441 341.406C548.191 340.527 549.1 339.848 550.166 339.367C551.232 338.875 552.428 338.629 553.752 338.629C555.088 338.629 556.289 338.875 557.355 339.367C558.434 339.848 559.348 340.527 560.098 341.406C560.859 342.273 561.439 343.299 561.838 344.482C562.236 345.654 562.436 346.926 562.436 348.297V348.701C562.436 350.072 562.236 351.344 561.838 352.516C561.439 353.688 560.859 354.713 560.098 355.592C559.348 356.459 558.439 357.139 557.373 357.631C556.318 358.111 555.123 358.352 553.787 358.352C552.451 358.352 551.25 358.111 550.184 357.631C549.117 357.139 548.203 356.459 547.441 355.592C546.691 354.713 546.117 353.688 545.719 352.516C545.32 351.344 545.121 350.072 545.121 348.701ZM548.373 348.297V348.701C548.373 349.65 548.484 350.547 548.707 351.391C548.93 352.223 549.264 352.961 549.709 353.605C550.166 354.25 550.734 354.76 551.414 355.135C552.094 355.498 552.885 355.68 553.787 355.68C554.678 355.68 555.457 355.498 556.125 355.135C556.805 354.76 557.367 354.25 557.812 353.605C558.258 352.961 558.592 352.223 558.814 351.391C559.049 350.547 559.166 349.65 559.166 348.701V348.297C559.166 347.359 559.049 346.475 558.814 345.643C558.592 344.799 558.252 344.055 557.795 343.41C557.35 342.754 556.787 342.238 556.107 341.863C555.439 341.488 554.654 341.301 553.752 341.301C552.861 341.301 552.076 341.488 551.396 341.863C550.729 342.238 550.166 342.754 549.709 343.41C549.264 344.055 548.93 344.799 548.707 345.643C548.484 346.475 548.373 347.359 548.373 348.297ZM591.387 349.861H594.762C594.586 351.479 594.123 352.926 593.373 354.203C592.623 355.48 591.562 356.494 590.191 357.244C588.82 357.982 587.109 358.352 585.059 358.352C583.559 358.352 582.193 358.07 580.963 357.508C579.744 356.945 578.695 356.148 577.816 355.117C576.938 354.074 576.258 352.826 575.777 351.373C575.309 349.908 575.074 348.279 575.074 346.486V343.938C575.074 342.145 575.309 340.521 575.777 339.068C576.258 337.604 576.943 336.35 577.834 335.307C578.736 334.264 579.82 333.461 581.086 332.898C582.352 332.336 583.775 332.055 585.357 332.055C587.291 332.055 588.926 332.418 590.262 333.145C591.598 333.871 592.635 334.879 593.373 336.168C594.123 337.445 594.586 338.928 594.762 340.615H591.387C591.223 339.42 590.918 338.395 590.473 337.539C590.027 336.672 589.395 336.004 588.574 335.535C587.754 335.066 586.682 334.832 585.357 334.832C584.221 334.832 583.219 335.049 582.352 335.482C581.496 335.916 580.775 336.531 580.189 337.328C579.615 338.125 579.182 339.08 578.889 340.193C578.596 341.307 578.449 342.543 578.449 343.902V346.486C578.449 347.74 578.578 348.918 578.836 350.02C579.105 351.121 579.51 352.088 580.049 352.92C580.588 353.752 581.273 354.408 582.105 354.889C582.938 355.357 583.922 355.592 585.059 355.592C586.5 355.592 587.648 355.363 588.504 354.906C589.359 354.449 590.004 353.793 590.438 352.938C590.883 352.082 591.199 351.057 591.387 349.861ZM610.107 354.748V344.957C610.107 344.207 609.955 343.557 609.65 343.006C609.357 342.443 608.912 342.01 608.314 341.705C607.717 341.4 606.979 341.248 606.1 341.248C605.279 341.248 604.559 341.389 603.938 341.67C603.328 341.951 602.848 342.32 602.496 342.777C602.156 343.234 601.986 343.727 601.986 344.254H598.734C598.734 343.574 598.91 342.9 599.262 342.232C599.613 341.564 600.117 340.961 600.773 340.422C601.441 339.871 602.238 339.438 603.164 339.121C604.102 338.793 605.145 338.629 606.293 338.629C607.676 338.629 608.895 338.863 609.949 339.332C611.016 339.801 611.848 340.51 612.445 341.459C613.055 342.396 613.359 343.574 613.359 344.992V353.852C613.359 354.484 613.412 355.158 613.518 355.873C613.635 356.588 613.805 357.203 614.027 357.719V358H610.635C610.471 357.625 610.342 357.127 610.248 356.506C610.154 355.873 610.107 355.287 610.107 354.748ZM610.67 346.469L610.705 348.754H607.418C606.492 348.754 605.666 348.83 604.939 348.982C604.213 349.123 603.604 349.34 603.111 349.633C602.619 349.926 602.244 350.295 601.986 350.74C601.729 351.174 601.6 351.684 601.6 352.27C601.6 352.867 601.734 353.412 602.004 353.904C602.273 354.396 602.678 354.789 603.217 355.082C603.768 355.363 604.441 355.504 605.238 355.504C606.234 355.504 607.113 355.293 607.875 354.871C608.637 354.449 609.24 353.934 609.686 353.324C610.143 352.715 610.389 352.123 610.424 351.549L611.812 353.113C611.73 353.605 611.508 354.15 611.145 354.748C610.781 355.346 610.295 355.92 609.686 356.471C609.088 357.01 608.373 357.461 607.541 357.824C606.721 358.176 605.795 358.352 604.764 358.352C603.475 358.352 602.344 358.1 601.371 357.596C600.41 357.092 599.66 356.418 599.121 355.574C598.594 354.719 598.33 353.764 598.33 352.709C598.33 351.689 598.529 350.793 598.928 350.02C599.326 349.234 599.9 348.584 600.65 348.068C601.4 347.541 602.303 347.143 603.357 346.873C604.412 346.604 605.59 346.469 606.891 346.469H610.67ZM629.549 352.955C629.549 352.486 629.443 352.053 629.232 351.654C629.033 351.244 628.617 350.875 627.984 350.547C627.363 350.207 626.426 349.914 625.172 349.668C624.117 349.445 623.162 349.182 622.307 348.877C621.463 348.572 620.742 348.203 620.145 347.77C619.559 347.336 619.107 346.826 618.791 346.24C618.475 345.654 618.316 344.969 618.316 344.184C618.316 343.434 618.48 342.725 618.809 342.057C619.148 341.389 619.623 340.797 620.232 340.281C620.854 339.766 621.598 339.361 622.465 339.068C623.332 338.775 624.299 338.629 625.365 338.629C626.889 338.629 628.189 338.898 629.268 339.438C630.346 339.977 631.172 340.697 631.746 341.6C632.32 342.49 632.607 343.48 632.607 344.57H629.355C629.355 344.043 629.197 343.533 628.881 343.041C628.576 342.537 628.125 342.121 627.527 341.793C626.941 341.465 626.221 341.301 625.365 341.301C624.463 341.301 623.73 341.441 623.168 341.723C622.617 341.992 622.213 342.338 621.955 342.76C621.709 343.182 621.586 343.627 621.586 344.096C621.586 344.447 621.645 344.764 621.762 345.045C621.891 345.314 622.113 345.566 622.43 345.801C622.746 346.023 623.191 346.234 623.766 346.434C624.34 346.633 625.072 346.832 625.963 347.031C627.521 347.383 628.805 347.805 629.812 348.297C630.82 348.789 631.57 349.393 632.062 350.107C632.555 350.822 632.801 351.689 632.801 352.709C632.801 353.541 632.625 354.303 632.273 354.994C631.934 355.686 631.436 356.283 630.779 356.787C630.135 357.279 629.361 357.666 628.459 357.947C627.568 358.217 626.566 358.352 625.453 358.352C623.777 358.352 622.359 358.053 621.199 357.455C620.039 356.857 619.16 356.084 618.562 355.135C617.965 354.186 617.666 353.184 617.666 352.129H620.936C620.982 353.02 621.24 353.729 621.709 354.256C622.178 354.771 622.752 355.141 623.432 355.363C624.111 355.574 624.785 355.68 625.453 355.68C626.344 355.68 627.088 355.562 627.686 355.328C628.295 355.094 628.758 354.771 629.074 354.361C629.391 353.951 629.549 353.482 629.549 352.955ZM640.324 331V358H637.072V331H640.324ZM639.551 347.77L638.197 347.717C638.209 346.416 638.402 345.215 638.777 344.113C639.152 343 639.68 342.033 640.359 341.213C641.039 340.393 641.848 339.76 642.785 339.314C643.734 338.857 644.783 338.629 645.932 338.629C646.869 338.629 647.713 338.758 648.463 339.016C649.213 339.262 649.852 339.66 650.379 340.211C650.918 340.762 651.328 341.477 651.609 342.355C651.891 343.223 652.031 344.283 652.031 345.537V358H648.762V345.502C648.762 344.506 648.615 343.709 648.322 343.111C648.029 342.502 647.602 342.062 647.039 341.793C646.477 341.512 645.785 341.371 644.965 341.371C644.156 341.371 643.418 341.541 642.75 341.881C642.094 342.221 641.525 342.689 641.045 343.287C640.576 343.885 640.207 344.57 639.938 345.344C639.68 346.105 639.551 346.914 639.551 347.77ZM659.854 354.133V356.752C659.854 357.818 659.584 358.943 659.045 360.127C658.506 361.322 657.75 362.318 656.777 363.115L654.932 361.832C655.307 361.316 655.623 360.789 655.881 360.25C656.139 359.723 656.332 359.172 656.461 358.598C656.602 358.035 656.672 357.438 656.672 356.805V354.133H659.854ZM693.129 344.395V346.012C693.129 347.934 692.889 349.656 692.408 351.18C691.928 352.703 691.236 353.998 690.334 355.064C689.432 356.131 688.348 356.945 687.082 357.508C685.828 358.07 684.422 358.352 682.863 358.352C681.352 358.352 679.963 358.07 678.697 357.508C677.443 356.945 676.354 356.131 675.428 355.064C674.514 353.998 673.805 352.703 673.301 351.18C672.797 349.656 672.545 347.934 672.545 346.012V344.395C672.545 342.473 672.791 340.756 673.283 339.244C673.787 337.721 674.496 336.426 675.41 335.359C676.324 334.281 677.408 333.461 678.662 332.898C679.928 332.336 681.316 332.055 682.828 332.055C684.387 332.055 685.793 332.336 687.047 332.898C688.312 333.461 689.396 334.281 690.299 335.359C691.213 336.426 691.91 337.721 692.391 339.244C692.883 340.756 693.129 342.473 693.129 344.395ZM689.771 346.012V344.359C689.771 342.836 689.613 341.488 689.297 340.316C688.992 339.145 688.541 338.16 687.943 337.363C687.346 336.566 686.613 335.963 685.746 335.553C684.891 335.143 683.918 334.938 682.828 334.938C681.773 334.938 680.818 335.143 679.963 335.553C679.119 335.963 678.393 336.566 677.783 337.363C677.186 338.16 676.723 339.145 676.395 340.316C676.066 341.488 675.902 342.836 675.902 344.359V346.012C675.902 347.547 676.066 348.906 676.395 350.09C676.723 351.262 677.191 352.252 677.801 353.061C678.422 353.857 679.154 354.461 679.998 354.871C680.854 355.281 681.809 355.486 682.863 355.486C683.965 355.486 684.943 355.281 685.799 354.871C686.654 354.461 687.375 353.857 687.961 353.061C688.559 352.252 689.01 351.262 689.314 350.09C689.619 348.906 689.771 347.547 689.771 346.012ZM700.969 343.041V358H697.717V338.98H700.793L700.969 343.041ZM700.195 347.77L698.842 347.717C698.854 346.416 699.047 345.215 699.422 344.113C699.797 343 700.324 342.033 701.004 341.213C701.684 340.393 702.492 339.76 703.43 339.314C704.379 338.857 705.428 338.629 706.576 338.629C707.514 338.629 708.357 338.758 709.107 339.016C709.857 339.262 710.496 339.66 711.023 340.211C711.562 340.762 711.973 341.477 712.254 342.355C712.535 343.223 712.676 344.283 712.676 345.537V358H709.406V345.502C709.406 344.506 709.26 343.709 708.967 343.111C708.674 342.502 708.246 342.062 707.684 341.793C707.121 341.512 706.43 341.371 705.609 341.371C704.801 341.371 704.062 341.541 703.395 341.881C702.738 342.221 702.17 342.689 701.689 343.287C701.221 343.885 700.852 344.57 700.582 345.344C700.324 346.105 700.195 346.914 700.195 347.77ZM725.508 358.352C724.184 358.352 722.982 358.129 721.904 357.684C720.838 357.227 719.918 356.588 719.145 355.768C718.383 354.947 717.797 353.975 717.387 352.85C716.977 351.725 716.771 350.494 716.771 349.158V348.42C716.771 346.873 717 345.496 717.457 344.289C717.914 343.07 718.535 342.039 719.32 341.195C720.105 340.352 720.996 339.713 721.992 339.279C722.988 338.846 724.02 338.629 725.086 338.629C726.445 338.629 727.617 338.863 728.602 339.332C729.598 339.801 730.412 340.457 731.045 341.301C731.678 342.133 732.146 343.117 732.451 344.254C732.756 345.379 732.908 346.609 732.908 347.945V349.404H718.705V346.75H729.656V346.504C729.609 345.66 729.434 344.84 729.129 344.043C728.836 343.246 728.367 342.59 727.723 342.074C727.078 341.559 726.199 341.301 725.086 341.301C724.348 341.301 723.668 341.459 723.047 341.775C722.426 342.08 721.893 342.537 721.447 343.146C721.002 343.756 720.656 344.5 720.41 345.379C720.164 346.258 720.041 347.271 720.041 348.42V349.158C720.041 350.061 720.164 350.91 720.41 351.707C720.668 352.492 721.037 353.184 721.518 353.781C722.01 354.379 722.602 354.848 723.293 355.188C723.996 355.527 724.793 355.697 725.684 355.697C726.832 355.697 727.805 355.463 728.602 354.994C729.398 354.525 730.096 353.898 730.693 353.113L732.662 354.678C732.252 355.299 731.73 355.891 731.098 356.453C730.465 357.016 729.686 357.473 728.76 357.824C727.846 358.176 726.762 358.352 725.508 358.352ZM755.25 346.029H748.764L748.729 343.305H754.617C755.59 343.305 756.439 343.141 757.166 342.812C757.893 342.484 758.455 342.016 758.854 341.406C759.264 340.785 759.469 340.047 759.469 339.191C759.469 338.254 759.287 337.492 758.924 336.906C758.572 336.309 758.027 335.875 757.289 335.605C756.562 335.324 755.637 335.184 754.512 335.184H749.52V358H746.127V332.406H754.512C755.824 332.406 756.996 332.541 758.027 332.811C759.059 333.068 759.932 333.479 760.646 334.041C761.373 334.592 761.924 335.295 762.299 336.15C762.674 337.006 762.861 338.031 762.861 339.227C762.861 340.281 762.592 341.236 762.053 342.092C761.514 342.936 760.764 343.627 759.803 344.166C758.854 344.705 757.74 345.051 756.463 345.203L755.25 346.029ZM755.092 358H747.428L749.344 355.24H755.092C756.17 355.24 757.084 355.053 757.834 354.678C758.596 354.303 759.176 353.775 759.574 353.096C759.973 352.404 760.172 351.59 760.172 350.652C760.172 349.703 760.002 348.883 759.662 348.191C759.322 347.5 758.789 346.967 758.062 346.592C757.336 346.217 756.398 346.029 755.25 346.029H750.416L750.451 343.305H757.061L757.781 344.289C759.012 344.395 760.055 344.746 760.91 345.344C761.766 345.93 762.416 346.68 762.861 347.594C763.318 348.508 763.547 349.516 763.547 350.617C763.547 352.211 763.195 353.559 762.492 354.66C761.801 355.75 760.822 356.582 759.557 357.156C758.291 357.719 756.803 358 755.092 358ZM767.203 348.701V348.297C767.203 346.926 767.402 345.654 767.801 344.482C768.199 343.299 768.773 342.273 769.523 341.406C770.273 340.527 771.182 339.848 772.248 339.367C773.314 338.875 774.51 338.629 775.834 338.629C777.17 338.629 778.371 338.875 779.438 339.367C780.516 339.848 781.43 340.527 782.18 341.406C782.941 342.273 783.521 343.299 783.92 344.482C784.318 345.654 784.518 346.926 784.518 348.297V348.701C784.518 350.072 784.318 351.344 783.92 352.516C783.521 353.688 782.941 354.713 782.18 355.592C781.43 356.459 780.521 357.139 779.455 357.631C778.4 358.111 777.205 358.352 775.869 358.352C774.533 358.352 773.332 358.111 772.266 357.631C771.199 357.139 770.285 356.459 769.523 355.592C768.773 354.713 768.199 353.688 767.801 352.516C767.402 351.344 767.203 350.072 767.203 348.701ZM770.455 348.297V348.701C770.455 349.65 770.566 350.547 770.789 351.391C771.012 352.223 771.346 352.961 771.791 353.605C772.248 354.25 772.816 354.76 773.496 355.135C774.176 355.498 774.967 355.68 775.869 355.68C776.76 355.68 777.539 355.498 778.207 355.135C778.887 354.76 779.449 354.25 779.895 353.605C780.34 352.961 780.674 352.223 780.896 351.391C781.131 350.547 781.248 349.65 781.248 348.701V348.297C781.248 347.359 781.131 346.475 780.896 345.643C780.674 344.799 780.334 344.055 779.877 343.41C779.432 342.754 778.869 342.238 778.189 341.863C777.521 341.488 776.736 341.301 775.834 341.301C774.943 341.301 774.158 341.488 773.479 341.863C772.811 342.238 772.248 342.754 771.791 343.41C771.346 344.055 771.012 344.799 770.789 345.643C770.566 346.475 770.455 347.359 770.455 348.297ZM796.559 338.98V341.477H786.275V338.98H796.559ZM789.756 334.357H793.008V353.289C793.008 353.934 793.107 354.42 793.307 354.748C793.506 355.076 793.764 355.293 794.08 355.398C794.396 355.504 794.736 355.557 795.1 355.557C795.369 355.557 795.65 355.533 795.943 355.486C796.248 355.428 796.477 355.381 796.629 355.346L796.646 358C796.389 358.082 796.049 358.158 795.627 358.229C795.217 358.311 794.719 358.352 794.133 358.352C793.336 358.352 792.604 358.193 791.936 357.877C791.268 357.561 790.734 357.033 790.336 356.295C789.949 355.545 789.756 354.537 789.756 353.271V334.357ZM808.336 338.98V341.477H798.053V338.98H808.336ZM801.533 334.357H804.785V353.289C804.785 353.934 804.885 354.42 805.084 354.748C805.283 355.076 805.541 355.293 805.857 355.398C806.174 355.504 806.514 355.557 806.877 355.557C807.146 355.557 807.428 355.533 807.721 355.486C808.025 355.428 808.254 355.381 808.406 355.346L808.424 358C808.166 358.082 807.826 358.158 807.404 358.229C806.994 358.311 806.496 358.352 805.91 358.352C805.113 358.352 804.381 358.193 803.713 357.877C803.045 357.561 802.512 357.033 802.113 356.295C801.727 355.545 801.533 354.537 801.533 353.271V334.357ZM815.684 331V358H812.414V331H815.684ZM828.797 358.352C827.473 358.352 826.271 358.129 825.193 357.684C824.127 357.227 823.207 356.588 822.434 355.768C821.672 354.947 821.086 353.975 820.676 352.85C820.266 351.725 820.061 350.494 820.061 349.158V348.42C820.061 346.873 820.289 345.496 820.746 344.289C821.203 343.07 821.824 342.039 822.609 341.195C823.395 340.352 824.285 339.713 825.281 339.279C826.277 338.846 827.309 338.629 828.375 338.629C829.734 338.629 830.906 338.863 831.891 339.332C832.887 339.801 833.701 340.457 834.334 341.301C834.967 342.133 835.436 343.117 835.74 344.254C836.045 345.379 836.197 346.609 836.197 347.945V349.404H821.994V346.75H832.945V346.504C832.898 345.66 832.723 344.84 832.418 344.043C832.125 343.246 831.656 342.59 831.012 342.074C830.367 341.559 829.488 341.301 828.375 341.301C827.637 341.301 826.957 341.459 826.336 341.775C825.715 342.08 825.182 342.537 824.736 343.146C824.291 343.756 823.945 344.5 823.699 345.379C823.453 346.258 823.33 347.271 823.33 348.42V349.158C823.33 350.061 823.453 350.91 823.699 351.707C823.957 352.492 824.326 353.184 824.807 353.781C825.299 354.379 825.891 354.848 826.582 355.188C827.285 355.527 828.082 355.697 828.973 355.697C830.121 355.697 831.094 355.463 831.891 354.994C832.688 354.525 833.385 353.898 833.982 353.113L835.951 354.678C835.541 355.299 835.02 355.891 834.387 356.453C833.754 357.016 832.975 357.473 832.049 357.824C831.135 358.176 830.051 358.352 828.797 358.352ZM860.139 354.748V344.957C860.139 344.207 859.986 343.557 859.682 343.006C859.389 342.443 858.943 342.01 858.346 341.705C857.748 341.4 857.01 341.248 856.131 341.248C855.311 341.248 854.59 341.389 853.969 341.67C853.359 341.951 852.879 342.32 852.527 342.777C852.188 343.234 852.018 343.727 852.018 344.254H848.766C848.766 343.574 848.941 342.9 849.293 342.232C849.645 341.564 850.148 340.961 850.805 340.422C851.473 339.871 852.27 339.438 853.195 339.121C854.133 338.793 855.176 338.629 856.324 338.629C857.707 338.629 858.926 338.863 859.98 339.332C861.047 339.801 861.879 340.51 862.477 341.459C863.086 342.396 863.391 343.574 863.391 344.992V353.852C863.391 354.484 863.443 355.158 863.549 355.873C863.666 356.588 863.836 357.203 864.059 357.719V358H860.666C860.502 357.625 860.373 357.127 860.279 356.506C860.186 355.873 860.139 355.287 860.139 354.748ZM860.701 346.469L860.736 348.754H857.449C856.523 348.754 855.697 348.83 854.971 348.982C854.244 349.123 853.635 349.34 853.143 349.633C852.65 349.926 852.275 350.295 852.018 350.74C851.76 351.174 851.631 351.684 851.631 352.27C851.631 352.867 851.766 353.412 852.035 353.904C852.305 354.396 852.709 354.789 853.248 355.082C853.799 355.363 854.473 355.504 855.27 355.504C856.266 355.504 857.145 355.293 857.906 354.871C858.668 354.449 859.271 353.934 859.717 353.324C860.174 352.715 860.42 352.123 860.455 351.549L861.844 353.113C861.762 353.605 861.539 354.15 861.176 354.748C860.812 355.346 860.326 355.92 859.717 356.471C859.119 357.01 858.404 357.461 857.572 357.824C856.752 358.176 855.826 358.352 854.795 358.352C853.506 358.352 852.375 358.1 851.402 357.596C850.441 357.092 849.691 356.418 849.152 355.574C848.625 354.719 848.361 353.764 848.361 352.709C848.361 351.689 848.561 350.793 848.959 350.02C849.357 349.234 849.932 348.584 850.682 348.068C851.432 347.541 852.334 347.143 853.389 346.873C854.443 346.604 855.621 346.469 856.922 346.469H860.701ZM876.469 338.98V341.477H866.186V338.98H876.469ZM869.666 334.357H872.918V353.289C872.918 353.934 873.018 354.42 873.217 354.748C873.416 355.076 873.674 355.293 873.99 355.398C874.307 355.504 874.646 355.557 875.01 355.557C875.279 355.557 875.561 355.533 875.854 355.486C876.158 355.428 876.387 355.381 876.539 355.346L876.557 358C876.299 358.082 875.959 358.158 875.537 358.229C875.127 358.311 874.629 358.352 874.043 358.352C873.246 358.352 872.514 358.193 871.846 357.877C871.178 357.561 870.645 357.033 870.246 356.295C869.859 355.545 869.666 354.537 869.666 353.271V334.357ZM900.428 354.748V344.957C900.428 344.207 900.275 343.557 899.971 343.006C899.678 342.443 899.232 342.01 898.635 341.705C898.037 341.4 897.299 341.248 896.42 341.248C895.6 341.248 894.879 341.389 894.258 341.67C893.648 341.951 893.168 342.32 892.816 342.777C892.477 343.234 892.307 343.727 892.307 344.254H889.055C889.055 343.574 889.23 342.9 889.582 342.232C889.934 341.564 890.438 340.961 891.094 340.422C891.762 339.871 892.559 339.438 893.484 339.121C894.422 338.793 895.465 338.629 896.613 338.629C897.996 338.629 899.215 338.863 900.27 339.332C901.336 339.801 902.168 340.51 902.766 341.459C903.375 342.396 903.68 343.574 903.68 344.992V353.852C903.68 354.484 903.732 355.158 903.838 355.873C903.955 356.588 904.125 357.203 904.348 357.719V358H900.955C900.791 357.625 900.662 357.127 900.568 356.506C900.475 355.873 900.428 355.287 900.428 354.748ZM900.99 346.469L901.025 348.754H897.738C896.812 348.754 895.986 348.83 895.26 348.982C894.533 349.123 893.924 349.34 893.432 349.633C892.939 349.926 892.564 350.295 892.307 350.74C892.049 351.174 891.92 351.684 891.92 352.27C891.92 352.867 892.055 353.412 892.324 353.904C892.594 354.396 892.998 354.789 893.537 355.082C894.088 355.363 894.762 355.504 895.559 355.504C896.555 355.504 897.434 355.293 898.195 354.871C898.957 354.449 899.561 353.934 900.006 353.324C900.463 352.715 900.709 352.123 900.744 351.549L902.133 353.113C902.051 353.605 901.828 354.15 901.465 354.748C901.102 355.346 900.615 355.92 900.006 356.471C899.408 357.01 898.693 357.461 897.861 357.824C897.041 358.176 896.115 358.352 895.084 358.352C893.795 358.352 892.664 358.1 891.691 357.596C890.73 357.092 889.98 356.418 889.441 355.574C888.914 354.719 888.65 353.764 888.65 352.709C888.65 351.689 888.85 350.793 889.248 350.02C889.646 349.234 890.221 348.584 890.971 348.068C891.721 347.541 892.623 347.143 893.678 346.873C894.732 346.604 895.91 346.469 897.211 346.469H900.99ZM926.971 332.406V358H923.631V332.406H926.971ZM935.197 332.406V335.184H915.422V332.406H935.197ZM942.035 338.98V358H938.766V338.98H942.035ZM938.52 333.936C938.52 333.408 938.678 332.963 938.994 332.6C939.322 332.236 939.803 332.055 940.436 332.055C941.057 332.055 941.531 332.236 941.859 332.6C942.199 332.963 942.369 333.408 942.369 333.936C942.369 334.439 942.199 334.873 941.859 335.236C941.531 335.588 941.057 335.764 940.436 335.764C939.803 335.764 939.322 335.588 938.994 335.236C938.678 334.873 938.52 334.439 938.52 333.936ZM950.49 342.76V358H947.221V338.98H950.314L950.49 342.76ZM949.822 347.77L948.311 347.717C948.322 346.416 948.492 345.215 948.82 344.113C949.148 343 949.635 342.033 950.279 341.213C950.924 340.393 951.727 339.76 952.688 339.314C953.648 338.857 954.762 338.629 956.027 338.629C956.918 338.629 957.738 338.758 958.488 339.016C959.238 339.262 959.889 339.654 960.439 340.193C960.99 340.732 961.418 341.424 961.723 342.268C962.027 343.111 962.18 344.131 962.18 345.326V358H958.928V345.484C958.928 344.488 958.758 343.691 958.418 343.094C958.09 342.496 957.621 342.062 957.012 341.793C956.402 341.512 955.688 341.371 954.867 341.371C953.906 341.371 953.104 341.541 952.459 341.881C951.814 342.221 951.299 342.689 950.912 343.287C950.525 343.885 950.244 344.57 950.068 345.344C949.904 346.105 949.822 346.914 949.822 347.77ZM962.145 345.977L959.965 346.645C959.977 345.602 960.146 344.6 960.475 343.639C960.814 342.678 961.301 341.822 961.934 341.072C962.578 340.322 963.369 339.73 964.307 339.297C965.244 338.852 966.316 338.629 967.523 338.629C968.543 338.629 969.445 338.764 970.23 339.033C971.027 339.303 971.695 339.719 972.234 340.281C972.785 340.832 973.201 341.541 973.482 342.408C973.764 343.275 973.904 344.307 973.904 345.502V358H970.635V345.467C970.635 344.4 970.465 343.574 970.125 342.988C969.797 342.391 969.328 341.975 968.719 341.74C968.121 341.494 967.406 341.371 966.574 341.371C965.859 341.371 965.227 341.494 964.676 341.74C964.125 341.986 963.662 342.326 963.287 342.76C962.912 343.182 962.625 343.668 962.426 344.219C962.238 344.77 962.145 345.355 962.145 345.977ZM986.719 358.352C985.395 358.352 984.193 358.129 983.115 357.684C982.049 357.227 981.129 356.588 980.355 355.768C979.594 354.947 979.008 353.975 978.598 352.85C978.188 351.725 977.982 350.494 977.982 349.158V348.42C977.982 346.873 978.211 345.496 978.668 344.289C979.125 343.07 979.746 342.039 980.531 341.195C981.316 340.352 982.207 339.713 983.203 339.279C984.199 338.846 985.23 338.629 986.297 338.629C987.656 338.629 988.828 338.863 989.812 339.332C990.809 339.801 991.623 340.457 992.256 341.301C992.889 342.133 993.357 343.117 993.662 344.254C993.967 345.379 994.119 346.609 994.119 347.945V349.404H979.916V346.75H990.867V346.504C990.82 345.66 990.645 344.84 990.34 344.043C990.047 343.246 989.578 342.59 988.934 342.074C988.289 341.559 987.41 341.301 986.297 341.301C985.559 341.301 984.879 341.459 984.258 341.775C983.637 342.08 983.104 342.537 982.658 343.146C982.213 343.756 981.867 344.5 981.621 345.379C981.375 346.258 981.252 347.271 981.252 348.42V349.158C981.252 350.061 981.375 350.91 981.621 351.707C981.879 352.492 982.248 353.184 982.729 353.781C983.221 354.379 983.812 354.848 984.504 355.188C985.207 355.527 986.004 355.697 986.895 355.697C988.043 355.697 989.016 355.463 989.812 354.994C990.609 354.525 991.307 353.898 991.904 353.113L993.873 354.678C993.463 355.299 992.941 355.891 992.309 356.453C991.676 357.016 990.896 357.473 989.971 357.824C989.057 358.176 987.973 358.352 986.719 358.352ZM1001.78 332.406L1001.55 350.775H998.619L998.373 332.406H1001.78ZM998.268 356.365C998.268 355.838 998.426 355.393 998.742 355.029C999.07 354.666 999.551 354.484 1000.18 354.484C1000.8 354.484 1001.28 354.666 1001.61 355.029C1001.95 355.393 1002.12 355.838 1002.12 356.365C1002.12 356.869 1001.95 357.303 1001.61 357.666C1001.28 358.029 1000.8 358.211 1000.18 358.211C999.551 358.211 999.07 358.029 998.742 357.666C998.426 357.303 998.268 356.869 998.268 356.365Z" fill="black"/>
</g>
<defs>
<clipPath id="clip0_173_38">
<rect width="1280" height="900" fill="white"/>
</clipPath>
<clipPath id="clip1_173_38">
<rect width="500" height="1007.06" fill="white" transform="matrix(0 -1 1 0 136 980)"/>
</clipPath>
<clipPath id="clip2_173_38">
<rect x="161.882" y="950.588" width="441.176" height="955.294" rx="40" transform="rotate(-90 161.882 950.588)" fill="white"/>
</clipPath>
<clipPath id="clip3_173_38">
<rect width="442" height="955" fill="white" transform="matrix(0 -1 1 0 162 951)"/>
</clipPath>
</defs>
</svg>
